<svg xmlns="http://www.w3.org/2000/svg" width="153.1mm" height="175.5mm" viewBox="-76.55 -80.75 153.1 175.5">
<rect x="-76.55" y="-80.75" width="153.1" height="175.5" fill="#fff"/>
<rect x="-60.55" y="-72.75" width="121.1" height="145.5" rx="5" fill="#fff" stroke="#000" stroke-width="0.4"/>
<rect x="-57.949999999999996" y="-70.15" width="115.89999999999999" height="140.3" rx="3" fill="none" stroke="#aaa" stroke-width="0.25" stroke-dasharray="1 1"/>
<rect x="-47.9" y="-70.25" width="15.8" height="26.6" fill="#ffe2a8" stroke="#a66" stroke-width="0.3"/>
<text x="-40.00" y="-56.95" font-family="DejaVu Sans, sans-serif" font-size="2.4" text-anchor="middle" fill="#000" font-weight="normal">in</text>
<rect x="-17.75" y="-70.25" width="9.5" height="16.0" fill="#ffe2a8" stroke="#a66" stroke-width="0.3"/>
<text x="-13.00" y="-62.25" font-family="DejaVu Sans, sans-serif" font-size="2.4" text-anchor="middle" fill="#000" font-weight="normal">9v</text>
<rect x="5.1" y="-70.25" width="15.8" height="26.6" fill="#ffe2a8" stroke="#a66" stroke-width="0.3"/>
<text x="13.00" y="-56.95" font-family="DejaVu Sans, sans-serif" font-size="2.4" text-anchor="middle" fill="#000" font-weight="normal">exp</text>
<rect x="32.1" y="-70.25" width="15.8" height="26.6" fill="#ffe2a8" stroke="#a66" stroke-width="0.3"/>
<text x="40.00" y="-56.95" font-family="DejaVu Sans, sans-serif" font-size="2.4" text-anchor="middle" fill="#000" font-weight="normal">out</text>
<rect x="-33.74" y="-42.75" width="77.18" height="42.72" fill="#bcd3f5" fill-opacity="0.55" stroke="#36c" stroke-width="0.4"/>
<rect x="38.84" y="-37.95" width="2.6" height="35.52" fill="#36c"/>
<text x="35.44" y="-36.39" font-family="DejaVu Sans, sans-serif" font-size="1.9" text-anchor="end" fill="#36c" font-weight="normal">14-pin header</text>
<text x="0.00" y="-23.39" font-family="DejaVu Sans, sans-serif" font-size="2.3" text-anchor="middle" fill="#235" font-weight="normal">2.4in screen module (top layer)</text>
<rect x="-60.55" y="-40.9" width="14.0" height="50.8" fill="#222"/>
<rect x="-67.89999999999999" y="-41.0" width="4.85" height="51" fill="#333" stroke="#000" stroke-width="0.3"/>
<rect x="-69.44999999999999" y="10.0" width="3.25" height="1.6" fill="#bbb"/>
<rect x="-63.05" y="-41.0" width="2.5" height="51" fill="#555"/>
<rect x="-60.55" y="12.91" width="4.699999999999999" height="1.6" fill="#888"/>
<rect x="-58.25" y="10.96" width="2.4" height="5.5" fill="#999"/>
<rect x="-60.55" y="-45.51" width="4.699999999999999" height="1.6" fill="#888"/>
<rect x="-58.25" y="-47.46" width="2.4" height="5.5" fill="#999"/>
<rect x="-46.55" y="-40.9" width="10" height="50.8" fill="none" stroke="#1f9d3a" stroke-width="0.3" stroke-dasharray="1 0.8"/>
<text x="-53.55" y="-23.50" font-family="DejaVu Sans, sans-serif" font-size="1.7" text-anchor="middle" fill="#fff" font-weight="normal">Seed3</text>
<text x="-53.55" y="-21.00" font-family="DejaVu Sans, sans-serif" font-size="1.7" text-anchor="middle" fill="#fff" font-weight="normal">plugs into</text>
<text x="-53.55" y="-18.50" font-family="DejaVu Sans, sans-serif" font-size="1.7" text-anchor="middle" fill="#fff" font-weight="normal">its jumper</text>
<text x="-53.55" y="-16.00" font-family="DejaVu Sans, sans-serif" font-size="1.7" text-anchor="middle" fill="#fff" font-weight="normal">ends, hot-</text>
<text x="-53.55" y="-13.50" font-family="DejaVu Sans, sans-serif" font-size="1.7" text-anchor="middle" fill="#fff" font-weight="normal">glued into</text>
<text x="-53.55" y="-11.00" font-family="DejaVu Sans, sans-serif" font-size="1.7" text-anchor="middle" fill="#fff" font-weight="normal">a block</text>
<text x="-41.55" y="-18.50" font-family="DejaVu Sans, sans-serif" font-size="1.8" text-anchor="middle" fill="#1f6d2a" font-weight="normal">wires</text>
<text x="-66.90" y="13.20" font-family="DejaVu Sans, sans-serif" font-size="1.9" text-anchor="middle" fill="#000" font-weight="normal">USB-C</text>
<circle cx="-30.74" cy="-39.75" r="2.6" fill="#fff" stroke="#000" stroke-width="0.4"/><circle cx="-30.74" cy="-39.75" r="1.5" fill="#000"/>
<circle cx="36.52" cy="-39.75" r="2.6" fill="#fff" stroke="#000" stroke-width="0.4"/><circle cx="36.52" cy="-39.75" r="1.5" fill="#000"/>
<circle cx="-30.74" cy="-3.03" r="2.6" fill="#fff" stroke="#000" stroke-width="0.4"/><circle cx="-30.74" cy="-3.03" r="1.5" fill="#000"/>
<circle cx="36.52" cy="-3.03" r="2.6" fill="#fff" stroke="#000" stroke-width="0.4"/><circle cx="36.52" cy="-3.03" r="1.5" fill="#000"/>
<rect x="-46.5" y="12.5" width="12" height="12" fill="#e5c7f0" stroke="#84a" stroke-width="0.3"/>
<text x="-40.50" y="27.50" font-family="DejaVu Sans, sans-serif" font-size="2.4" text-anchor="middle" fill="#000" font-weight="normal">pg-1</text>
<rect x="-19.5" y="12.5" width="12" height="12" fill="#e5c7f0" stroke="#84a" stroke-width="0.3"/>
<text x="-13.50" y="27.50" font-family="DejaVu Sans, sans-serif" font-size="2.4" text-anchor="middle" fill="#000" font-weight="normal">pg-2</text>
<rect x="7.5" y="12.5" width="12" height="12" fill="#e5c7f0" stroke="#84a" stroke-width="0.3"/>
<text x="13.50" y="27.50" font-family="DejaVu Sans, sans-serif" font-size="2.4" text-anchor="middle" fill="#000" font-weight="normal">pg-3</text>
<rect x="34.5" y="12.5" width="12" height="12" fill="#e5c7f0" stroke="#84a" stroke-width="0.3"/>
<text x="40.50" y="27.50" font-family="DejaVu Sans, sans-serif" font-size="2.4" text-anchor="middle" fill="#000" font-weight="normal">pg-4</text>
<circle cx="-36.0" cy="50.0" r="6.6" fill="#ddd" stroke="#555" stroke-width="0.3"/>
<text x="-36.00" y="60.00" font-family="DejaVu Sans, sans-serif" font-size="2.4" text-anchor="middle" fill="#000" font-weight="normal">fs-1</text>
<circle cx="0.0" cy="50.0" r="6.6" fill="#ddd" stroke="#555" stroke-width="0.3"/>
<text x="0.00" y="60.00" font-family="DejaVu Sans, sans-serif" font-size="2.4" text-anchor="middle" fill="#000" font-weight="normal">fs-2</text>
<circle cx="36.0" cy="50.0" r="6.6" fill="#ddd" stroke="#555" stroke-width="0.3"/>
<text x="36.00" y="60.00" font-family="DejaVu Sans, sans-serif" font-size="2.4" text-anchor="middle" fill="#000" font-weight="normal">fs-3</text>
<text x="0.00" y="77.75" font-family="DejaVu Sans, sans-serif" font-size="2.6" text-anchor="middle" fill="#000" font-weight="normal">INTERIOR TOP VIEW (looking down through the face) - 1:1</text>
<text x="0.00" y="81.75" font-family="DejaVu Sans, sans-serif" font-size="2.2" text-anchor="middle" fill="#000" font-weight="normal">screen: M3x12 screw | face | 5mm spacer | screen PCB | M3 nut.   Seed3 socket: jumper ends hot-glued in the window</text>
<text x="0.00" y="85.75" font-family="DejaVu Sans, sans-serif" font-size="2.2" text-anchor="middle" fill="#a00" font-weight="normal">Seed3 pulls straight out of the left wall: keep the green dashed zone free for the wires. 4 small screws only close the holes (later: way 2 board)</text>
</svg>
