<svg xmlns="http://www.w3.org/2000/svg" width="297.0mm" height="210.0mm" viewBox="0 0 297.0 210.0"><defs>
<filter id="sh" x="-20%" y="-20%" width="140%" height="140%"><feGaussianBlur in="SourceAlpha" stdDeviation="0.9"/>
<feOffset dx="0.8" dy="1.1"/><feComponentTransfer><feFuncA type="linear" slope="0.35"/></feComponentTransfer>
<feMerge><feMergeNode/><feMergeNode in="SourceGraphic"/></feMerge></filter>
<linearGradient id="metal" x1="0" y1="0" x2="1" y2="1"><stop offset="0" stop-color="#eef0f2"/><stop offset="0.45" stop-color="#b8bcc2"/><stop offset="1" stop-color="#8a8f96"/></linearGradient>
<linearGradient id="dark" x1="0" y1="0" x2="0" y2="1"><stop offset="0" stop-color="#3a3d42"/><stop offset="1" stop-color="#1c1e21"/></linearGradient>
<linearGradient id="ivory" x1="0" y1="0" x2="1" y2="1"><stop offset="0" stop-color="#fbf8ee"/><stop offset="1" stop-color="#ddd6c2"/></linearGradient>
<linearGradient id="pcbg" x1="0" y1="0" x2="0" y2="1"><stop offset="0" stop-color="#2f9a5e"/><stop offset="1" stop-color="#1f6e42"/></linearGradient>
<linearGradient id="pcbb" x1="0" y1="0" x2="0" y2="1"><stop offset="0" stop-color="#2d63c8"/><stop offset="1" stop-color="#1a3f8a"/></linearGradient>
<linearGradient id="gold" x1="0" y1="0" x2="1" y2="0"><stop offset="0" stop-color="#f3d27a"/><stop offset="1" stop-color="#b98a1c"/></linearGradient>
<linearGradient id="potc" x1="0" y1="0" x2="1" y2="1"><stop offset="0" stop-color="#c9d3df"/><stop offset="1" stop-color="#7f8ea2"/></linearGradient>
<radialGradient id="chrome" cx="0.35" cy="0.35" r="0.7"><stop offset="0" stop-color="#ffffff"/><stop offset="0.5" stop-color="#c3c7cc"/><stop offset="1" stop-color="#7d838b"/></radialGradient>
</defs><rect width="297.0" height="210.0" fill="#f6f4ef"/><text x="8.00" y="10.00" font-family="DejaVu Sans, sans-serif" font-size="4.6" text-anchor="start" fill="#111" font-weight="bold">PG-1 wiring  5/10:  The 4 encoders -&gt; Seed3</text>
<text x="8.00" y="16.00" font-family="DejaVu Sans, sans-serif" font-size="2.3" text-anchor="start" fill="#333" font-weight="normal">On the back of each encoder: a row of 3 pins and a row of 2. C and &#x27;push 2&#x27; are on the ground-chain page. If a knob turns the wrong way, </text>
<text x="8.00" y="19.10" font-family="DejaVu Sans, sans-serif" font-size="2.3" text-anchor="start" fill="#333" font-weight="normal">flip &#x27;knobs&#x27; in the config tab: no rewiring. </text>
<rect x="11.20" y="59.00" width="2.40" height="6.00" rx="0.4" fill="url(#metal)" stroke="#666" stroke-width="0.3"/>
<rect x="42.40" y="59.00" width="2.40" height="6.00" rx="0.4" fill="url(#metal)" stroke="#666" stroke-width="0.3"/>
<rect x="13.60" y="47.60" width="28.80" height="28.80" rx="1.6" fill="url(#metal)" stroke="#555" stroke-width="0.35" filter="url(#sh)"/>
<rect x="15.20" y="49.20" width="25.60" height="25.60" rx="1.2" fill="url(#dark)" stroke="#111" stroke-width="0.3"/>
<rect x="20.50" y="58.80" width="15.00" height="6.40" rx="0.8" fill="#f4f1e8" stroke="#999" stroke-width="0.2"/>
<text x="28.00" y="63.20" font-family="DejaVu Sans, sans-serif" font-size="3.0" text-anchor="middle" fill="#111" font-weight="bold">pg-1</text>
<path d="M22.00,75.40 L22.00,80.90" stroke="#6d7177" stroke-width="1.25" stroke-linecap="round"/><path d="M22.00,75.40 L22.00,80.90" stroke="#d9dce0" stroke-width="0.9" stroke-linecap="round"/>
<text x="22.00" y="84.80" font-family="DejaVu Sans, sans-serif" font-size="2.4" text-anchor="middle" fill="#000" font-weight="bold" stroke="#fff" stroke-width="0.53" paint-order="stroke">B</text>
<path d="M28.00,75.40 L28.00,80.90" stroke="#6d7177" stroke-width="1.25" stroke-linecap="round"/><path d="M28.00,75.40 L28.00,80.90" stroke="#d9dce0" stroke-width="0.9" stroke-linecap="round"/>
<text x="28.00" y="84.80" font-family="DejaVu Sans, sans-serif" font-size="2.4" text-anchor="middle" fill="#000" font-weight="bold" stroke="#fff" stroke-width="0.53" paint-order="stroke">C</text>
<path d="M34.00,75.40 L34.00,80.90" stroke="#6d7177" stroke-width="1.25" stroke-linecap="round"/><path d="M34.00,75.40 L34.00,80.90" stroke="#d9dce0" stroke-width="0.9" stroke-linecap="round"/>
<text x="34.00" y="84.80" font-family="DejaVu Sans, sans-serif" font-size="2.4" text-anchor="middle" fill="#000" font-weight="bold" stroke="#fff" stroke-width="0.53" paint-order="stroke">A</text>
<path d="M22.00,48.60 L22.00,43.10" stroke="#6d7177" stroke-width="1.25" stroke-linecap="round"/><path d="M22.00,48.60 L22.00,43.10" stroke="#d9dce0" stroke-width="0.9" stroke-linecap="round"/>
<text x="22.00" y="41.60" font-family="DejaVu Sans, sans-serif" font-size="2.0" text-anchor="middle" fill="#000" font-weight="bold" stroke="#fff" stroke-width="0.44" paint-order="stroke">push</text>
<path d="M34.00,48.60 L34.00,43.10" stroke="#6d7177" stroke-width="1.25" stroke-linecap="round"/><path d="M34.00,48.60 L34.00,43.10" stroke="#d9dce0" stroke-width="0.9" stroke-linecap="round"/>
<text x="34.00" y="41.60" font-family="DejaVu Sans, sans-serif" font-size="2.0" text-anchor="middle" fill="#000" font-weight="bold" stroke="#fff" stroke-width="0.44" paint-order="stroke">push 2</text>
<text x="28.00" y="88.40" font-family="DejaVu Sans, sans-serif" font-size="1.8" text-anchor="middle" fill="#666" font-weight="normal" stroke="#fff" stroke-width="0.40" paint-order="stroke">back of the encoder</text>
<rect x="57.20" y="59.00" width="2.40" height="6.00" rx="0.4" fill="url(#metal)" stroke="#666" stroke-width="0.3"/>
<rect x="88.40" y="59.00" width="2.40" height="6.00" rx="0.4" fill="url(#metal)" stroke="#666" stroke-width="0.3"/>
<rect x="59.60" y="47.60" width="28.80" height="28.80" rx="1.6" fill="url(#metal)" stroke="#555" stroke-width="0.35" filter="url(#sh)"/>
<rect x="61.20" y="49.20" width="25.60" height="25.60" rx="1.2" fill="url(#dark)" stroke="#111" stroke-width="0.3"/>
<rect x="66.50" y="58.80" width="15.00" height="6.40" rx="0.8" fill="#f4f1e8" stroke="#999" stroke-width="0.2"/>
<text x="74.00" y="63.20" font-family="DejaVu Sans, sans-serif" font-size="3.0" text-anchor="middle" fill="#111" font-weight="bold">pg-2</text>
<path d="M68.00,75.40 L68.00,80.90" stroke="#6d7177" stroke-width="1.25" stroke-linecap="round"/><path d="M68.00,75.40 L68.00,80.90" stroke="#d9dce0" stroke-width="0.9" stroke-linecap="round"/>
<text x="68.00" y="84.80" font-family="DejaVu Sans, sans-serif" font-size="2.4" text-anchor="middle" fill="#000" font-weight="bold" stroke="#fff" stroke-width="0.53" paint-order="stroke">B</text>
<path d="M74.00,75.40 L74.00,80.90" stroke="#6d7177" stroke-width="1.25" stroke-linecap="round"/><path d="M74.00,75.40 L74.00,80.90" stroke="#d9dce0" stroke-width="0.9" stroke-linecap="round"/>
<text x="74.00" y="84.80" font-family="DejaVu Sans, sans-serif" font-size="2.4" text-anchor="middle" fill="#000" font-weight="bold" stroke="#fff" stroke-width="0.53" paint-order="stroke">C</text>
<path d="M80.00,75.40 L80.00,80.90" stroke="#6d7177" stroke-width="1.25" stroke-linecap="round"/><path d="M80.00,75.40 L80.00,80.90" stroke="#d9dce0" stroke-width="0.9" stroke-linecap="round"/>
<text x="80.00" y="84.80" font-family="DejaVu Sans, sans-serif" font-size="2.4" text-anchor="middle" fill="#000" font-weight="bold" stroke="#fff" stroke-width="0.53" paint-order="stroke">A</text>
<path d="M68.00,48.60 L68.00,43.10" stroke="#6d7177" stroke-width="1.25" stroke-linecap="round"/><path d="M68.00,48.60 L68.00,43.10" stroke="#d9dce0" stroke-width="0.9" stroke-linecap="round"/>
<text x="68.00" y="41.60" font-family="DejaVu Sans, sans-serif" font-size="2.0" text-anchor="middle" fill="#000" font-weight="bold" stroke="#fff" stroke-width="0.44" paint-order="stroke">push</text>
<path d="M80.00,48.60 L80.00,43.10" stroke="#6d7177" stroke-width="1.25" stroke-linecap="round"/><path d="M80.00,48.60 L80.00,43.10" stroke="#d9dce0" stroke-width="0.9" stroke-linecap="round"/>
<text x="80.00" y="41.60" font-family="DejaVu Sans, sans-serif" font-size="2.0" text-anchor="middle" fill="#000" font-weight="bold" stroke="#fff" stroke-width="0.44" paint-order="stroke">push 2</text>
<text x="74.00" y="88.40" font-family="DejaVu Sans, sans-serif" font-size="1.8" text-anchor="middle" fill="#666" font-weight="normal" stroke="#fff" stroke-width="0.40" paint-order="stroke">back of the encoder</text>
<rect x="103.20" y="59.00" width="2.40" height="6.00" rx="0.4" fill="url(#metal)" stroke="#666" stroke-width="0.3"/>
<rect x="134.40" y="59.00" width="2.40" height="6.00" rx="0.4" fill="url(#metal)" stroke="#666" stroke-width="0.3"/>
<rect x="105.60" y="47.60" width="28.80" height="28.80" rx="1.6" fill="url(#metal)" stroke="#555" stroke-width="0.35" filter="url(#sh)"/>
<rect x="107.20" y="49.20" width="25.60" height="25.60" rx="1.2" fill="url(#dark)" stroke="#111" stroke-width="0.3"/>
<rect x="112.50" y="58.80" width="15.00" height="6.40" rx="0.8" fill="#f4f1e8" stroke="#999" stroke-width="0.2"/>
<text x="120.00" y="63.20" font-family="DejaVu Sans, sans-serif" font-size="3.0" text-anchor="middle" fill="#111" font-weight="bold">pg-3</text>
<path d="M114.00,75.40 L114.00,80.90" stroke="#6d7177" stroke-width="1.25" stroke-linecap="round"/><path d="M114.00,75.40 L114.00,80.90" stroke="#d9dce0" stroke-width="0.9" stroke-linecap="round"/>
<text x="114.00" y="84.80" font-family="DejaVu Sans, sans-serif" font-size="2.4" text-anchor="middle" fill="#000" font-weight="bold" stroke="#fff" stroke-width="0.53" paint-order="stroke">B</text>
<path d="M120.00,75.40 L120.00,80.90" stroke="#6d7177" stroke-width="1.25" stroke-linecap="round"/><path d="M120.00,75.40 L120.00,80.90" stroke="#d9dce0" stroke-width="0.9" stroke-linecap="round"/>
<text x="120.00" y="84.80" font-family="DejaVu Sans, sans-serif" font-size="2.4" text-anchor="middle" fill="#000" font-weight="bold" stroke="#fff" stroke-width="0.53" paint-order="stroke">C</text>
<path d="M126.00,75.40 L126.00,80.90" stroke="#6d7177" stroke-width="1.25" stroke-linecap="round"/><path d="M126.00,75.40 L126.00,80.90" stroke="#d9dce0" stroke-width="0.9" stroke-linecap="round"/>
<text x="126.00" y="84.80" font-family="DejaVu Sans, sans-serif" font-size="2.4" text-anchor="middle" fill="#000" font-weight="bold" stroke="#fff" stroke-width="0.53" paint-order="stroke">A</text>
<path d="M114.00,48.60 L114.00,43.10" stroke="#6d7177" stroke-width="1.25" stroke-linecap="round"/><path d="M114.00,48.60 L114.00,43.10" stroke="#d9dce0" stroke-width="0.9" stroke-linecap="round"/>
<text x="114.00" y="41.60" font-family="DejaVu Sans, sans-serif" font-size="2.0" text-anchor="middle" fill="#000" font-weight="bold" stroke="#fff" stroke-width="0.44" paint-order="stroke">push</text>
<path d="M126.00,48.60 L126.00,43.10" stroke="#6d7177" stroke-width="1.25" stroke-linecap="round"/><path d="M126.00,48.60 L126.00,43.10" stroke="#d9dce0" stroke-width="0.9" stroke-linecap="round"/>
<text x="126.00" y="41.60" font-family="DejaVu Sans, sans-serif" font-size="2.0" text-anchor="middle" fill="#000" font-weight="bold" stroke="#fff" stroke-width="0.44" paint-order="stroke">push 2</text>
<text x="120.00" y="88.40" font-family="DejaVu Sans, sans-serif" font-size="1.8" text-anchor="middle" fill="#666" font-weight="normal" stroke="#fff" stroke-width="0.40" paint-order="stroke">back of the encoder</text>
<rect x="149.20" y="59.00" width="2.40" height="6.00" rx="0.4" fill="url(#metal)" stroke="#666" stroke-width="0.3"/>
<rect x="180.40" y="59.00" width="2.40" height="6.00" rx="0.4" fill="url(#metal)" stroke="#666" stroke-width="0.3"/>
<rect x="151.60" y="47.60" width="28.80" height="28.80" rx="1.6" fill="url(#metal)" stroke="#555" stroke-width="0.35" filter="url(#sh)"/>
<rect x="153.20" y="49.20" width="25.60" height="25.60" rx="1.2" fill="url(#dark)" stroke="#111" stroke-width="0.3"/>
<rect x="158.50" y="58.80" width="15.00" height="6.40" rx="0.8" fill="#f4f1e8" stroke="#999" stroke-width="0.2"/>
<text x="166.00" y="63.20" font-family="DejaVu Sans, sans-serif" font-size="3.0" text-anchor="middle" fill="#111" font-weight="bold">pg-4</text>
<path d="M160.00,75.40 L160.00,80.90" stroke="#6d7177" stroke-width="1.25" stroke-linecap="round"/><path d="M160.00,75.40 L160.00,80.90" stroke="#d9dce0" stroke-width="0.9" stroke-linecap="round"/>
<text x="160.00" y="84.80" font-family="DejaVu Sans, sans-serif" font-size="2.4" text-anchor="middle" fill="#000" font-weight="bold" stroke="#fff" stroke-width="0.53" paint-order="stroke">B</text>
<path d="M166.00,75.40 L166.00,80.90" stroke="#6d7177" stroke-width="1.25" stroke-linecap="round"/><path d="M166.00,75.40 L166.00,80.90" stroke="#d9dce0" stroke-width="0.9" stroke-linecap="round"/>
<text x="166.00" y="84.80" font-family="DejaVu Sans, sans-serif" font-size="2.4" text-anchor="middle" fill="#000" font-weight="bold" stroke="#fff" stroke-width="0.53" paint-order="stroke">C</text>
<path d="M172.00,75.40 L172.00,80.90" stroke="#6d7177" stroke-width="1.25" stroke-linecap="round"/><path d="M172.00,75.40 L172.00,80.90" stroke="#d9dce0" stroke-width="0.9" stroke-linecap="round"/>
<text x="172.00" y="84.80" font-family="DejaVu Sans, sans-serif" font-size="2.4" text-anchor="middle" fill="#000" font-weight="bold" stroke="#fff" stroke-width="0.53" paint-order="stroke">A</text>
<path d="M160.00,48.60 L160.00,43.10" stroke="#6d7177" stroke-width="1.25" stroke-linecap="round"/><path d="M160.00,48.60 L160.00,43.10" stroke="#d9dce0" stroke-width="0.9" stroke-linecap="round"/>
<text x="160.00" y="41.60" font-family="DejaVu Sans, sans-serif" font-size="2.0" text-anchor="middle" fill="#000" font-weight="bold" stroke="#fff" stroke-width="0.44" paint-order="stroke">push</text>
<path d="M172.00,48.60 L172.00,43.10" stroke="#6d7177" stroke-width="1.25" stroke-linecap="round"/><path d="M172.00,48.60 L172.00,43.10" stroke="#d9dce0" stroke-width="0.9" stroke-linecap="round"/>
<text x="172.00" y="41.60" font-family="DejaVu Sans, sans-serif" font-size="2.0" text-anchor="middle" fill="#000" font-weight="bold" stroke="#fff" stroke-width="0.44" paint-order="stroke">push 2</text>
<text x="166.00" y="88.40" font-family="DejaVu Sans, sans-serif" font-size="1.8" text-anchor="middle" fill="#666" font-weight="normal" stroke="#fff" stroke-width="0.40" paint-order="stroke">back of the encoder</text>
<rect x="48.00" y="173.00" width="99.44" height="20.14" rx="1.6" fill="#2a2a2a" stroke="#000" stroke-width="0.35" filter="url(#sh)"/>
<text x="97.72" y="190.34" font-family="DejaVu Sans, sans-serif" font-size="1.8" text-anchor="middle" fill="#eee" font-weight="bold">Seed3 socket: the jumper-end block in the right wall, from INSIDE (USB-C end on your left)</text>
<rect x="52.35" y="177.35" width="3.87" height="3.87" rx="0.3" fill="#111" stroke="#555" stroke-width="0.25"/>
<text x="54.29" y="179.89" font-family="DejaVu Sans, sans-serif" font-size="1.5" text-anchor="middle" fill="#8a8a8a" font-weight="normal">1</text>
<rect x="52.35" y="181.92" width="3.87" height="3.87" rx="0.3" fill="#111" stroke="#555" stroke-width="0.25"/>
<text x="54.29" y="184.46" font-family="DejaVu Sans, sans-serif" font-size="1.5" text-anchor="middle" fill="#8a8a8a" font-weight="normal">40</text>
<rect x="56.92" y="177.35" width="3.87" height="3.87" rx="0.3" fill="#000" stroke="#d4a017" stroke-width="0.45"/>
<rect x="56.92" y="181.92" width="3.87" height="3.87" rx="0.3" fill="#111" stroke="#555" stroke-width="0.25"/>
<text x="58.86" y="184.46" font-family="DejaVu Sans, sans-serif" font-size="1.5" text-anchor="middle" fill="#8a8a8a" font-weight="normal">39</text>
<rect x="61.49" y="177.35" width="3.87" height="3.87" rx="0.3" fill="#000" stroke="#d4a017" stroke-width="0.45"/>
<rect x="61.49" y="181.92" width="3.87" height="3.87" rx="0.3" fill="#111" stroke="#555" stroke-width="0.25"/>
<text x="63.43" y="184.46" font-family="DejaVu Sans, sans-serif" font-size="1.5" text-anchor="middle" fill="#8a8a8a" font-weight="normal">38</text>
<rect x="66.07" y="177.35" width="3.87" height="3.87" rx="0.3" fill="#000" stroke="#d4a017" stroke-width="0.45"/>
<rect x="66.07" y="181.92" width="3.87" height="3.87" rx="0.3" fill="#111" stroke="#555" stroke-width="0.25"/>
<text x="68.00" y="184.46" font-family="DejaVu Sans, sans-serif" font-size="1.5" text-anchor="middle" fill="#8a8a8a" font-weight="normal">37</text>
<rect x="70.64" y="177.35" width="3.87" height="3.87" rx="0.3" fill="#000" stroke="#d4a017" stroke-width="0.45"/>
<rect x="70.64" y="181.92" width="3.87" height="3.87" rx="0.3" fill="#111" stroke="#555" stroke-width="0.25"/>
<text x="72.57" y="184.46" font-family="DejaVu Sans, sans-serif" font-size="1.5" text-anchor="middle" fill="#8a8a8a" font-weight="normal">36</text>
<rect x="75.21" y="177.35" width="3.87" height="3.87" rx="0.3" fill="#000" stroke="#d4a017" stroke-width="0.45"/>
<rect x="75.21" y="181.92" width="3.87" height="3.87" rx="0.3" fill="#111" stroke="#555" stroke-width="0.25"/>
<text x="77.15" y="184.46" font-family="DejaVu Sans, sans-serif" font-size="1.5" text-anchor="middle" fill="#8a8a8a" font-weight="normal">35</text>
<rect x="79.78" y="177.35" width="3.87" height="3.87" rx="0.3" fill="#000" stroke="#d4a017" stroke-width="0.45"/>
<rect x="79.78" y="181.92" width="3.87" height="3.87" rx="0.3" fill="#111" stroke="#555" stroke-width="0.25"/>
<text x="81.72" y="184.46" font-family="DejaVu Sans, sans-serif" font-size="1.5" text-anchor="middle" fill="#8a8a8a" font-weight="normal">34</text>
<rect x="84.35" y="177.35" width="3.87" height="3.87" rx="0.3" fill="#111" stroke="#555" stroke-width="0.25"/>
<text x="86.29" y="179.89" font-family="DejaVu Sans, sans-serif" font-size="1.5" text-anchor="middle" fill="#8a8a8a" font-weight="normal">8</text>
<rect x="84.35" y="181.92" width="3.87" height="3.87" rx="0.3" fill="#111" stroke="#555" stroke-width="0.25"/>
<text x="86.29" y="184.46" font-family="DejaVu Sans, sans-serif" font-size="1.5" text-anchor="middle" fill="#8a8a8a" font-weight="normal">33</text>
<rect x="88.93" y="177.35" width="3.87" height="3.87" rx="0.3" fill="#111" stroke="#555" stroke-width="0.25"/>
<text x="90.86" y="179.89" font-family="DejaVu Sans, sans-serif" font-size="1.5" text-anchor="middle" fill="#8a8a8a" font-weight="normal">9</text>
<rect x="88.93" y="181.92" width="3.87" height="3.87" rx="0.3" fill="#111" stroke="#555" stroke-width="0.25"/>
<text x="90.86" y="184.46" font-family="DejaVu Sans, sans-serif" font-size="1.5" text-anchor="middle" fill="#8a8a8a" font-weight="normal">32</text>
<rect x="93.50" y="177.35" width="3.87" height="3.87" rx="0.3" fill="#111" stroke="#555" stroke-width="0.25"/>
<text x="95.43" y="179.89" font-family="DejaVu Sans, sans-serif" font-size="1.5" text-anchor="middle" fill="#8a8a8a" font-weight="normal">10</text>
<rect x="93.50" y="181.92" width="3.87" height="3.87" rx="0.3" fill="#111" stroke="#555" stroke-width="0.25"/>
<text x="95.43" y="184.46" font-family="DejaVu Sans, sans-serif" font-size="1.5" text-anchor="middle" fill="#8a8a8a" font-weight="normal">31</text>
<rect x="98.07" y="177.35" width="3.87" height="3.87" rx="0.3" fill="#111" stroke="#555" stroke-width="0.25"/>
<text x="100.01" y="179.89" font-family="DejaVu Sans, sans-serif" font-size="1.5" text-anchor="middle" fill="#8a8a8a" font-weight="normal">11</text>
<rect x="98.07" y="181.92" width="3.87" height="3.87" rx="0.3" fill="#111" stroke="#555" stroke-width="0.25"/>
<text x="100.01" y="184.46" font-family="DejaVu Sans, sans-serif" font-size="1.5" text-anchor="middle" fill="#8a8a8a" font-weight="normal">30</text>
<rect x="102.64" y="177.35" width="3.87" height="3.87" rx="0.3" fill="#111" stroke="#555" stroke-width="0.25"/>
<text x="104.58" y="179.89" font-family="DejaVu Sans, sans-serif" font-size="1.5" text-anchor="middle" fill="#8a8a8a" font-weight="normal">12</text>
<rect x="102.64" y="181.92" width="3.87" height="3.87" rx="0.3" fill="#111" stroke="#555" stroke-width="0.25"/>
<text x="104.58" y="184.46" font-family="DejaVu Sans, sans-serif" font-size="1.5" text-anchor="middle" fill="#8a8a8a" font-weight="normal">29</text>
<rect x="107.21" y="177.35" width="3.87" height="3.87" rx="0.3" fill="#111" stroke="#555" stroke-width="0.25"/>
<text x="109.15" y="179.89" font-family="DejaVu Sans, sans-serif" font-size="1.5" text-anchor="middle" fill="#8a8a8a" font-weight="normal">13</text>
<rect x="107.21" y="181.92" width="3.87" height="3.87" rx="0.3" fill="#000" stroke="#d4a017" stroke-width="0.45"/>
<rect x="111.79" y="177.35" width="3.87" height="3.87" rx="0.3" fill="#000" stroke="#d4a017" stroke-width="0.45"/>
<rect x="111.79" y="181.92" width="3.87" height="3.87" rx="0.3" fill="#000" stroke="#d4a017" stroke-width="0.45"/>
<rect x="116.36" y="177.35" width="3.87" height="3.87" rx="0.3" fill="#000" stroke="#d4a017" stroke-width="0.45"/>
<rect x="116.36" y="181.92" width="3.87" height="3.87" rx="0.3" fill="#000" stroke="#d4a017" stroke-width="0.45"/>
<rect x="120.93" y="177.35" width="3.87" height="3.87" rx="0.3" fill="#111" stroke="#555" stroke-width="0.25"/>
<text x="122.87" y="179.89" font-family="DejaVu Sans, sans-serif" font-size="1.5" text-anchor="middle" fill="#8a8a8a" font-weight="normal">16</text>
<rect x="120.93" y="181.92" width="3.87" height="3.87" rx="0.3" fill="#111" stroke="#555" stroke-width="0.25"/>
<text x="122.87" y="184.46" font-family="DejaVu Sans, sans-serif" font-size="1.5" text-anchor="middle" fill="#8a8a8a" font-weight="normal">25</text>
<rect x="125.50" y="177.35" width="3.87" height="3.87" rx="0.3" fill="#111" stroke="#555" stroke-width="0.25"/>
<text x="127.44" y="179.89" font-family="DejaVu Sans, sans-serif" font-size="1.5" text-anchor="middle" fill="#8a8a8a" font-weight="normal">17</text>
<rect x="125.50" y="181.92" width="3.87" height="3.87" rx="0.3" fill="#111" stroke="#555" stroke-width="0.25"/>
<text x="127.44" y="184.46" font-family="DejaVu Sans, sans-serif" font-size="1.5" text-anchor="middle" fill="#8a8a8a" font-weight="normal">24</text>
<rect x="130.07" y="177.35" width="3.87" height="3.87" rx="0.3" fill="#111" stroke="#555" stroke-width="0.25"/>
<text x="132.01" y="179.89" font-family="DejaVu Sans, sans-serif" font-size="1.5" text-anchor="middle" fill="#8a8a8a" font-weight="normal">18</text>
<rect x="130.07" y="181.92" width="3.87" height="3.87" rx="0.3" fill="#111" stroke="#555" stroke-width="0.25"/>
<text x="132.01" y="184.46" font-family="DejaVu Sans, sans-serif" font-size="1.5" text-anchor="middle" fill="#8a8a8a" font-weight="normal">23</text>
<rect x="134.65" y="177.35" width="3.87" height="3.87" rx="0.3" fill="#111" stroke="#555" stroke-width="0.25"/>
<text x="136.58" y="179.89" font-family="DejaVu Sans, sans-serif" font-size="1.5" text-anchor="middle" fill="#8a8a8a" font-weight="normal">19</text>
<rect x="134.65" y="181.92" width="3.87" height="3.87" rx="0.3" fill="#000" stroke="#d4a017" stroke-width="0.45"/>
<rect x="139.22" y="177.35" width="3.87" height="3.87" rx="0.3" fill="#111" stroke="#555" stroke-width="0.25"/>
<text x="141.15" y="179.89" font-family="DejaVu Sans, sans-serif" font-size="1.5" text-anchor="middle" fill="#8a8a8a" font-weight="normal">20</text>
<rect x="139.22" y="181.92" width="3.87" height="3.87" rx="0.3" fill="#111" stroke="#555" stroke-width="0.25"/>
<text x="141.15" y="184.46" font-family="DejaVu Sans, sans-serif" font-size="1.5" text-anchor="middle" fill="#8a8a8a" font-weight="normal">21</text>
<text x="46.50" y="182.07" font-family="DejaVu Sans, sans-serif" font-size="1.8" text-anchor="end" fill="#444" font-weight="normal" stroke="#fff" stroke-width="0.40" paint-order="stroke">USB-C</text>
<path d="M34.00,80.90 L34.00,111.60 Q34.00,113.20 35.60,113.20 L57.26,113.20 Q58.86,113.20 58.86,114.80 L58.86,179.29" fill="none" stroke="#000" stroke-opacity="0.55" stroke-width="1.8" stroke-linecap="round" stroke-linejoin="round"/><path d="M34.00,80.90 L34.00,111.60 Q34.00,113.20 35.60,113.20 L57.26,113.20 Q58.86,113.20 58.86,114.80 L58.86,179.29" fill="none" stroke="#1f9d3a" stroke-width="1.25" stroke-linecap="round" stroke-linejoin="round"/><path d="M34.00,80.90 L34.00,111.60 Q34.00,113.20 35.60,113.20 L57.26,113.20 Q58.86,113.20 58.86,114.80 L58.86,179.29" fill="none" stroke="#fff" stroke-opacity="0.35" stroke-width="0.35" stroke-linecap="round" stroke-linejoin="round" transform="translate(-0.18,-0.18)"/>
<path d="M22.00,80.90 L22.00,106.40 Q22.00,108.00 23.60,108.00 L61.83,108.00 Q63.43,108.00 63.43,109.60 L63.43,179.29" fill="none" stroke="#000" stroke-opacity="0.55" stroke-width="1.8" stroke-linecap="round" stroke-linejoin="round"/><path d="M22.00,80.90 L22.00,106.40 Q22.00,108.00 23.60,108.00 L61.83,108.00 Q63.43,108.00 63.43,109.60 L63.43,179.29" fill="none" stroke="#1f9d3a" stroke-width="1.25" stroke-linecap="round" stroke-linejoin="round"/><path d="M22.00,80.90 L22.00,106.40 Q22.00,108.00 23.60,108.00 L61.83,108.00 Q63.43,108.00 63.43,109.60 L63.43,179.29" fill="none" stroke="#fff" stroke-opacity="0.35" stroke-width="0.35" stroke-linecap="round" stroke-linejoin="round" transform="translate(-0.18,-0.18)"/>
<path d="M22.00,43.10 L22.00,40.90 Q22.00,39.30 20.40,39.30 L9.60,39.30 Q8.00,39.30 8.00,40.90 L8.00,109.00 Q8.00,110.60 9.60,110.60 L66.40,110.60 Q68.00,110.60 68.00,112.20 L68.00,179.29" fill="none" stroke="#000" stroke-opacity="0.55" stroke-width="1.8" stroke-linecap="round" stroke-linejoin="round"/><path d="M22.00,43.10 L22.00,40.90 Q22.00,39.30 20.40,39.30 L9.60,39.30 Q8.00,39.30 8.00,40.90 L8.00,109.00 Q8.00,110.60 9.60,110.60 L66.40,110.60 Q68.00,110.60 68.00,112.20 L68.00,179.29" fill="none" stroke="#1f9d3a" stroke-width="1.25" stroke-linecap="round" stroke-linejoin="round"/><path d="M22.00,43.10 L22.00,40.90 Q22.00,39.30 20.40,39.30 L9.60,39.30 Q8.00,39.30 8.00,40.90 L8.00,109.00 Q8.00,110.60 9.60,110.60 L66.40,110.60 Q68.00,110.60 68.00,112.20 L68.00,179.29" fill="none" stroke="#fff" stroke-opacity="0.35" stroke-width="0.35" stroke-linecap="round" stroke-linejoin="round" transform="translate(-0.18,-0.18)"/>
<path d="M80.00,80.90 L80.00,119.40 Q80.00,121.00 78.40,121.00 L74.17,121.00 Q72.57,121.00 72.57,122.60 L72.57,179.29" fill="none" stroke="#000" stroke-opacity="0.55" stroke-width="1.8" stroke-linecap="round" stroke-linejoin="round"/><path d="M80.00,80.90 L80.00,119.40 Q80.00,121.00 78.40,121.00 L74.17,121.00 Q72.57,121.00 72.57,122.60 L72.57,179.29" fill="none" stroke="#1f9d3a" stroke-width="1.25" stroke-linecap="round" stroke-linejoin="round"/><path d="M80.00,80.90 L80.00,119.40 Q80.00,121.00 78.40,121.00 L74.17,121.00 Q72.57,121.00 72.57,122.60 L72.57,179.29" fill="none" stroke="#fff" stroke-opacity="0.35" stroke-width="0.35" stroke-linecap="round" stroke-linejoin="round" transform="translate(-0.18,-0.18)"/>
<path d="M68.00,80.90 L68.00,114.20 Q68.00,115.80 69.60,115.80 L75.55,115.80 Q77.15,115.80 77.15,117.40 L77.15,179.29" fill="none" stroke="#000" stroke-opacity="0.55" stroke-width="1.8" stroke-linecap="round" stroke-linejoin="round"/><path d="M68.00,80.90 L68.00,114.20 Q68.00,115.80 69.60,115.80 L75.55,115.80 Q77.15,115.80 77.15,117.40 L77.15,179.29" fill="none" stroke="#1f9d3a" stroke-width="1.25" stroke-linecap="round" stroke-linejoin="round"/><path d="M68.00,80.90 L68.00,114.20 Q68.00,115.80 69.60,115.80 L75.55,115.80 Q77.15,115.80 77.15,117.40 L77.15,179.29" fill="none" stroke="#fff" stroke-opacity="0.35" stroke-width="0.35" stroke-linecap="round" stroke-linejoin="round" transform="translate(-0.18,-0.18)"/>
<path d="M68.00,43.10 L68.00,38.50 Q68.00,36.90 66.40,36.90 L52.30,36.90 Q50.70,36.90 50.70,38.50 L50.70,116.80 Q50.70,118.40 52.30,118.40 L80.12,118.40 Q81.72,118.40 81.72,120.00 L81.72,179.29" fill="none" stroke="#000" stroke-opacity="0.55" stroke-width="1.8" stroke-linecap="round" stroke-linejoin="round"/><path d="M68.00,43.10 L68.00,38.50 Q68.00,36.90 66.40,36.90 L52.30,36.90 Q50.70,36.90 50.70,38.50 L50.70,116.80 Q50.70,118.40 52.30,118.40 L80.12,118.40 Q81.72,118.40 81.72,120.00 L81.72,179.29" fill="none" stroke="#1f9d3a" stroke-width="1.25" stroke-linecap="round" stroke-linejoin="round"/><path d="M68.00,43.10 L68.00,38.50 Q68.00,36.90 66.40,36.90 L52.30,36.90 Q50.70,36.90 50.70,38.50 L50.70,116.80 Q50.70,118.40 52.30,118.40 L80.12,118.40 Q81.72,118.40 81.72,120.00 L81.72,179.29" fill="none" stroke="#fff" stroke-opacity="0.35" stroke-width="0.35" stroke-linecap="round" stroke-linejoin="round" transform="translate(-0.18,-0.18)"/>
<path d="M126.00,80.90 L126.00,124.60 Q126.00,126.20 124.40,126.20 L115.32,126.20 Q113.72,126.20 113.72,127.80 L113.72,179.29" fill="none" stroke="#000" stroke-opacity="0.55" stroke-width="1.8" stroke-linecap="round" stroke-linejoin="round"/><path d="M126.00,80.90 L126.00,124.60 Q126.00,126.20 124.40,126.20 L115.32,126.20 Q113.72,126.20 113.72,127.80 L113.72,179.29" fill="none" stroke="#1f9d3a" stroke-width="1.25" stroke-linecap="round" stroke-linejoin="round"/><path d="M126.00,80.90 L126.00,124.60 Q126.00,126.20 124.40,126.20 L115.32,126.20 Q113.72,126.20 113.72,127.80 L113.72,179.29" fill="none" stroke="#fff" stroke-opacity="0.35" stroke-width="0.35" stroke-linecap="round" stroke-linejoin="round" transform="translate(-0.18,-0.18)"/>
<path d="M114.00,80.90 L114.00,122.00 Q114.00,123.60 115.60,123.60 L116.69,123.60 Q118.29,123.60 118.29,125.20 L118.29,179.29" fill="none" stroke="#000" stroke-opacity="0.55" stroke-width="1.8" stroke-linecap="round" stroke-linejoin="round"/><path d="M114.00,80.90 L114.00,122.00 Q114.00,123.60 115.60,123.60 L116.69,123.60 Q118.29,123.60 118.29,125.20 L118.29,179.29" fill="none" stroke="#1f9d3a" stroke-width="1.25" stroke-linecap="round" stroke-linejoin="round"/><path d="M114.00,80.90 L114.00,122.00 Q114.00,123.60 115.60,123.60 L116.69,123.60 Q118.29,123.60 118.29,125.20 L118.29,179.29" fill="none" stroke="#fff" stroke-opacity="0.35" stroke-width="0.35" stroke-linecap="round" stroke-linejoin="round" transform="translate(-0.18,-0.18)"/>
<path d="M114.00,43.10 L114.00,40.10 Q114.00,38.50 112.40,38.50 L100.50,38.50 Q98.90,38.50 98.90,40.10 L98.90,127.20 Q98.90,128.80 100.50,128.80 L134.98,128.80 Q136.58,128.80 136.58,130.40 L136.58,183.86" fill="none" stroke="#000" stroke-opacity="0.55" stroke-width="1.8" stroke-linecap="round" stroke-linejoin="round"/><path d="M114.00,43.10 L114.00,40.10 Q114.00,38.50 112.40,38.50 L100.50,38.50 Q98.90,38.50 98.90,40.10 L98.90,127.20 Q98.90,128.80 100.50,128.80 L134.98,128.80 Q136.58,128.80 136.58,130.40 L136.58,183.86" fill="none" stroke="#1f9d3a" stroke-width="1.25" stroke-linecap="round" stroke-linejoin="round"/><path d="M114.00,43.10 L114.00,40.10 Q114.00,38.50 112.40,38.50 L100.50,38.50 Q98.90,38.50 98.90,40.10 L98.90,127.20 Q98.90,128.80 100.50,128.80 L134.98,128.80 Q136.58,128.80 136.58,130.40 L136.58,183.86" fill="none" stroke="#fff" stroke-opacity="0.35" stroke-width="0.35" stroke-linecap="round" stroke-linejoin="round" transform="translate(-0.18,-0.18)"/>
<path d="M172.00,80.90 L172.00,135.00 Q172.00,136.60 170.40,136.60 L119.89,136.60 Q118.29,136.60 118.29,138.20 L118.29,183.86" fill="none" stroke="#000" stroke-opacity="0.55" stroke-width="1.8" stroke-linecap="round" stroke-linejoin="round"/><path d="M172.00,80.90 L172.00,135.00 Q172.00,136.60 170.40,136.60 L119.89,136.60 Q118.29,136.60 118.29,138.20 L118.29,183.86" fill="none" stroke="#1f9d3a" stroke-width="1.25" stroke-linecap="round" stroke-linejoin="round"/><path d="M172.00,80.90 L172.00,135.00 Q172.00,136.60 170.40,136.60 L119.89,136.60 Q118.29,136.60 118.29,138.20 L118.29,183.86" fill="none" stroke="#fff" stroke-opacity="0.35" stroke-width="0.35" stroke-linecap="round" stroke-linejoin="round" transform="translate(-0.18,-0.18)"/>
<path d="M160.00,80.90 L160.00,132.40 Q160.00,134.00 158.40,134.00 L115.32,134.00 Q113.72,134.00 113.72,135.60 L113.72,183.86" fill="none" stroke="#000" stroke-opacity="0.55" stroke-width="1.8" stroke-linecap="round" stroke-linejoin="round"/><path d="M160.00,80.90 L160.00,132.40 Q160.00,134.00 158.40,134.00 L115.32,134.00 Q113.72,134.00 113.72,135.60 L113.72,183.86" fill="none" stroke="#1f9d3a" stroke-width="1.25" stroke-linecap="round" stroke-linejoin="round"/><path d="M160.00,80.90 L160.00,132.40 Q160.00,134.00 158.40,134.00 L115.32,134.00 Q113.72,134.00 113.72,135.60 L113.72,183.86" fill="none" stroke="#fff" stroke-opacity="0.35" stroke-width="0.35" stroke-linecap="round" stroke-linejoin="round" transform="translate(-0.18,-0.18)"/>
<path d="M160.00,43.10 L160.00,39.30 Q160.00,37.70 158.40,37.70 L145.40,37.70 Q143.80,37.70 143.80,39.30 L143.80,129.80 Q143.80,131.40 142.20,131.40 L110.75,131.40 Q109.15,131.40 109.15,133.00 L109.15,183.86" fill="none" stroke="#000" stroke-opacity="0.55" stroke-width="1.8" stroke-linecap="round" stroke-linejoin="round"/><path d="M160.00,43.10 L160.00,39.30 Q160.00,37.70 158.40,37.70 L145.40,37.70 Q143.80,37.70 143.80,39.30 L143.80,129.80 Q143.80,131.40 142.20,131.40 L110.75,131.40 Q109.15,131.40 109.15,133.00 L109.15,183.86" fill="none" stroke="#1f9d3a" stroke-width="1.25" stroke-linecap="round" stroke-linejoin="round"/><path d="M160.00,43.10 L160.00,39.30 Q160.00,37.70 158.40,37.70 L145.40,37.70 Q143.80,37.70 143.80,39.30 L143.80,129.80 Q143.80,131.40 142.20,131.40 L110.75,131.40 Q109.15,131.40 109.15,133.00 L109.15,183.86" fill="none" stroke="#fff" stroke-opacity="0.35" stroke-width="0.35" stroke-linecap="round" stroke-linejoin="round" transform="translate(-0.18,-0.18)"/>
<circle cx="34.00" cy="80.90" r="1.05" fill="#e4e6e9" stroke="#80858c" stroke-width="0.3"/>
<rect x="56.66" y="177.59" width="4.4" height="3.4" rx="0.7" fill="#fff" stroke="#1f9d3a" stroke-width="0.5"/><text x="58.86" y="180.09" font-family="DejaVu Sans" font-size="2.2" text-anchor="middle" font-weight="bold" fill="#000">2</text>
<circle cx="22.00" cy="80.90" r="1.05" fill="#e4e6e9" stroke="#80858c" stroke-width="0.3"/>
<rect x="61.23" y="177.59" width="4.4" height="3.4" rx="0.7" fill="#fff" stroke="#1f9d3a" stroke-width="0.5"/><text x="63.43" y="180.09" font-family="DejaVu Sans" font-size="2.2" text-anchor="middle" font-weight="bold" fill="#000">3</text>
<circle cx="22.00" cy="43.10" r="1.05" fill="#e4e6e9" stroke="#80858c" stroke-width="0.3"/>
<rect x="65.80" y="177.59" width="4.4" height="3.4" rx="0.7" fill="#fff" stroke="#1f9d3a" stroke-width="0.5"/><text x="68.00" y="180.09" font-family="DejaVu Sans" font-size="2.2" text-anchor="middle" font-weight="bold" fill="#000">4</text>
<circle cx="80.00" cy="80.90" r="1.05" fill="#e4e6e9" stroke="#80858c" stroke-width="0.3"/>
<rect x="70.37" y="177.59" width="4.4" height="3.4" rx="0.7" fill="#fff" stroke="#1f9d3a" stroke-width="0.5"/><text x="72.57" y="180.09" font-family="DejaVu Sans" font-size="2.2" text-anchor="middle" font-weight="bold" fill="#000">5</text>
<circle cx="68.00" cy="80.90" r="1.05" fill="#e4e6e9" stroke="#80858c" stroke-width="0.3"/>
<rect x="74.95" y="177.59" width="4.4" height="3.4" rx="0.7" fill="#fff" stroke="#1f9d3a" stroke-width="0.5"/><text x="77.15" y="180.09" font-family="DejaVu Sans" font-size="2.2" text-anchor="middle" font-weight="bold" fill="#000">6</text>
<circle cx="68.00" cy="43.10" r="1.05" fill="#e4e6e9" stroke="#80858c" stroke-width="0.3"/>
<rect x="79.52" y="177.59" width="4.4" height="3.4" rx="0.7" fill="#fff" stroke="#1f9d3a" stroke-width="0.5"/><text x="81.72" y="180.09" font-family="DejaVu Sans" font-size="2.2" text-anchor="middle" font-weight="bold" fill="#000">7</text>
<circle cx="126.00" cy="80.90" r="1.05" fill="#e4e6e9" stroke="#80858c" stroke-width="0.3"/>
<rect x="111.52" y="177.59" width="4.4" height="3.4" rx="0.7" fill="#fff" stroke="#1f9d3a" stroke-width="0.5"/><text x="113.72" y="180.09" font-family="DejaVu Sans" font-size="2.2" text-anchor="middle" font-weight="bold" fill="#000">14</text>
<circle cx="114.00" cy="80.90" r="1.05" fill="#e4e6e9" stroke="#80858c" stroke-width="0.3"/>
<rect x="116.09" y="177.59" width="4.4" height="3.4" rx="0.7" fill="#fff" stroke="#1f9d3a" stroke-width="0.5"/><text x="118.29" y="180.09" font-family="DejaVu Sans" font-size="2.2" text-anchor="middle" font-weight="bold" fill="#000">15</text>
<circle cx="114.00" cy="43.10" r="1.05" fill="#e4e6e9" stroke="#80858c" stroke-width="0.3"/>
<rect x="134.38" y="182.16" width="4.4" height="3.4" rx="0.7" fill="#fff" stroke="#1f9d3a" stroke-width="0.5"/><text x="136.58" y="184.66" font-family="DejaVu Sans" font-size="2.2" text-anchor="middle" font-weight="bold" fill="#000">22</text>
<circle cx="172.00" cy="80.90" r="1.05" fill="#e4e6e9" stroke="#80858c" stroke-width="0.3"/>
<rect x="116.09" y="182.16" width="4.4" height="3.4" rx="0.7" fill="#fff" stroke="#1f9d3a" stroke-width="0.5"/><text x="118.29" y="184.66" font-family="DejaVu Sans" font-size="2.2" text-anchor="middle" font-weight="bold" fill="#000">26</text>
<circle cx="160.00" cy="80.90" r="1.05" fill="#e4e6e9" stroke="#80858c" stroke-width="0.3"/>
<rect x="111.52" y="182.16" width="4.4" height="3.4" rx="0.7" fill="#fff" stroke="#1f9d3a" stroke-width="0.5"/><text x="113.72" y="184.66" font-family="DejaVu Sans" font-size="2.2" text-anchor="middle" font-weight="bold" fill="#000">27</text>
<circle cx="160.00" cy="43.10" r="1.05" fill="#e4e6e9" stroke="#80858c" stroke-width="0.3"/>
<rect x="106.95" y="182.16" width="4.4" height="3.4" rx="0.7" fill="#fff" stroke="#1f9d3a" stroke-width="0.5"/><text x="109.15" y="184.66" font-family="DejaVu Sans" font-size="2.2" text-anchor="middle" font-weight="bold" fill="#000">28</text>
<circle cx="46.43" cy="113.20" r="2.2" fill="#fff" stroke="#1f9d3a" stroke-width="0.55"/><text x="46.43" y="114.05" font-family="DejaVu Sans" font-size="2.3" text-anchor="middle" font-weight="bold" fill="#000">1</text>
<circle cx="42.72" cy="108.00" r="2.2" fill="#fff" stroke="#1f9d3a" stroke-width="0.55"/><text x="42.72" y="108.85" font-family="DejaVu Sans" font-size="2.3" text-anchor="middle" font-weight="bold" fill="#000">2</text>
<circle cx="38.00" cy="110.60" r="2.2" fill="#fff" stroke="#1f9d3a" stroke-width="0.55"/><text x="38.00" y="111.45" font-family="DejaVu Sans" font-size="2.3" text-anchor="middle" font-weight="bold" fill="#000">3</text>
<circle cx="76.29" cy="121.00" r="2.2" fill="#fff" stroke="#1f9d3a" stroke-width="0.55"/><text x="76.29" y="121.85" font-family="DejaVu Sans" font-size="2.3" text-anchor="middle" font-weight="bold" fill="#000">4</text>
<circle cx="72.57" cy="115.80" r="2.2" fill="#fff" stroke="#1f9d3a" stroke-width="0.55"/><text x="72.57" y="116.65" font-family="DejaVu Sans" font-size="2.3" text-anchor="middle" font-weight="bold" fill="#000">5</text>
<circle cx="66.21" cy="118.40" r="2.2" fill="#fff" stroke="#1f9d3a" stroke-width="0.55"/><text x="66.21" y="119.25" font-family="DejaVu Sans" font-size="2.3" text-anchor="middle" font-weight="bold" fill="#000">6</text>
<circle cx="119.86" cy="126.20" r="2.2" fill="#fff" stroke="#1f9d3a" stroke-width="0.55"/><text x="119.86" y="127.05" font-family="DejaVu Sans" font-size="2.3" text-anchor="middle" font-weight="bold" fill="#000">7</text>
<circle cx="116.15" cy="123.60" r="2.2" fill="#fff" stroke="#1f9d3a" stroke-width="0.55"/><text x="116.15" y="124.45" font-family="DejaVu Sans" font-size="2.3" text-anchor="middle" font-weight="bold" fill="#000">8</text>
<circle cx="117.74" cy="128.80" r="2.2" fill="#fff" stroke="#1f9d3a" stroke-width="0.55"/><text x="117.74" y="129.65" font-family="DejaVu Sans" font-size="2.3" text-anchor="middle" font-weight="bold" fill="#000">9</text>
<circle cx="145.15" cy="136.60" r="2.2" fill="#fff" stroke="#1f9d3a" stroke-width="0.55"/><text x="145.15" y="137.45" font-family="DejaVu Sans" font-size="2.3" text-anchor="middle" font-weight="bold" fill="#000">10</text>
<circle cx="136.86" cy="134.00" r="2.2" fill="#fff" stroke="#1f9d3a" stroke-width="0.55"/><text x="136.86" y="134.85" font-family="DejaVu Sans" font-size="2.3" text-anchor="middle" font-weight="bold" fill="#000">11</text>
<circle cx="126.47" cy="131.40" r="2.2" fill="#fff" stroke="#1f9d3a" stroke-width="0.55"/><text x="126.47" y="132.25" font-family="DejaVu Sans" font-size="2.3" text-anchor="middle" font-weight="bold" fill="#000">12</text>
<rect x="201.00" y="22" width="91.00" height="182.00" rx="2" fill="#fff" stroke="#ddd" stroke-width="0.3"/>
<text x="204.00" y="27.50" font-family="DejaVu Sans, sans-serif" font-size="2.8" text-anchor="start" fill="#111" font-weight="bold">Steps (the number is on the wire)</text>
<circle cx="205.70" cy="30.25" r="1.7" fill="#1f9d3a"/><text x="205.70" y="31.00" font-family="DejaVu Sans" font-size="2.0" text-anchor="middle" font-weight="bold" fill="#fff">1</text>
<text x="208.60" y="31.00" font-family="DejaVu Sans, sans-serif" font-size="1.9" text-anchor="start" fill="#111" font-weight="normal">pg-1 encoder: RIGHT pin of the row of 3 (A)  -&gt;  Seed3</text>
<text x="208.60" y="33.55" font-family="DejaVu Sans, sans-serif" font-size="1.9" text-anchor="start" fill="#111" font-weight="normal">socket place 2 (top row)</text>
<circle cx="205.70" cy="36.35" r="1.7" fill="#1f9d3a"/><text x="205.70" y="37.10" font-family="DejaVu Sans" font-size="2.0" text-anchor="middle" font-weight="bold" fill="#fff">2</text>
<text x="208.60" y="37.10" font-family="DejaVu Sans, sans-serif" font-size="1.9" text-anchor="start" fill="#111" font-weight="normal">pg-1 encoder: LEFT pin of the row of 3 (B)  -&gt;  Seed3</text>
<text x="208.60" y="39.65" font-family="DejaVu Sans, sans-serif" font-size="1.9" text-anchor="start" fill="#111" font-weight="normal">socket place 3 (top row)</text>
<circle cx="205.70" cy="42.45" r="1.7" fill="#1f9d3a"/><text x="205.70" y="43.20" font-family="DejaVu Sans" font-size="2.0" text-anchor="middle" font-weight="bold" fill="#fff">3</text>
<text x="208.60" y="43.20" font-family="DejaVu Sans, sans-serif" font-size="1.9" text-anchor="start" fill="#111" font-weight="normal">pg-1 encoder: LEFT pin of the 2 (push)  -&gt;  Seed3</text>
<text x="208.60" y="45.75" font-family="DejaVu Sans, sans-serif" font-size="1.9" text-anchor="start" fill="#111" font-weight="normal">socket place 4 (top row)</text>
<circle cx="205.70" cy="48.55" r="1.7" fill="#1f9d3a"/><text x="205.70" y="49.30" font-family="DejaVu Sans" font-size="2.0" text-anchor="middle" font-weight="bold" fill="#fff">4</text>
<text x="208.60" y="49.30" font-family="DejaVu Sans, sans-serif" font-size="1.9" text-anchor="start" fill="#111" font-weight="normal">pg-2 encoder: RIGHT pin of the row of 3 (A)  -&gt;  Seed3</text>
<text x="208.60" y="51.85" font-family="DejaVu Sans, sans-serif" font-size="1.9" text-anchor="start" fill="#111" font-weight="normal">socket place 5 (top row)</text>
<circle cx="205.70" cy="54.65" r="1.7" fill="#1f9d3a"/><text x="205.70" y="55.40" font-family="DejaVu Sans" font-size="2.0" text-anchor="middle" font-weight="bold" fill="#fff">5</text>
<text x="208.60" y="55.40" font-family="DejaVu Sans, sans-serif" font-size="1.9" text-anchor="start" fill="#111" font-weight="normal">pg-2 encoder: LEFT pin of the row of 3 (B)  -&gt;  Seed3</text>
<text x="208.60" y="57.95" font-family="DejaVu Sans, sans-serif" font-size="1.9" text-anchor="start" fill="#111" font-weight="normal">socket place 6 (top row)</text>
<circle cx="205.70" cy="60.75" r="1.7" fill="#1f9d3a"/><text x="205.70" y="61.50" font-family="DejaVu Sans" font-size="2.0" text-anchor="middle" font-weight="bold" fill="#fff">6</text>
<text x="208.60" y="61.50" font-family="DejaVu Sans, sans-serif" font-size="1.9" text-anchor="start" fill="#111" font-weight="normal">pg-2 encoder: LEFT pin of the 2 (push)  -&gt;  Seed3</text>
<text x="208.60" y="64.05" font-family="DejaVu Sans, sans-serif" font-size="1.9" text-anchor="start" fill="#111" font-weight="normal">socket place 7 (top row)</text>
<circle cx="205.70" cy="66.85" r="1.7" fill="#1f9d3a"/><text x="205.70" y="67.60" font-family="DejaVu Sans" font-size="2.0" text-anchor="middle" font-weight="bold" fill="#fff">7</text>
<text x="208.60" y="67.60" font-family="DejaVu Sans, sans-serif" font-size="1.9" text-anchor="start" fill="#111" font-weight="normal">pg-3 encoder: RIGHT pin of the row of 3 (A)  -&gt;  Seed3</text>
<text x="208.60" y="70.15" font-family="DejaVu Sans, sans-serif" font-size="1.9" text-anchor="start" fill="#111" font-weight="normal">socket place 14 (top row)</text>
<circle cx="205.70" cy="72.95" r="1.7" fill="#1f9d3a"/><text x="205.70" y="73.70" font-family="DejaVu Sans" font-size="2.0" text-anchor="middle" font-weight="bold" fill="#fff">8</text>
<text x="208.60" y="73.70" font-family="DejaVu Sans, sans-serif" font-size="1.9" text-anchor="start" fill="#111" font-weight="normal">pg-3 encoder: LEFT pin of the row of 3 (B)  -&gt;  Seed3</text>
<text x="208.60" y="76.25" font-family="DejaVu Sans, sans-serif" font-size="1.9" text-anchor="start" fill="#111" font-weight="normal">socket place 15 (top row)</text>
<circle cx="205.70" cy="79.05" r="1.7" fill="#1f9d3a"/><text x="205.70" y="79.80" font-family="DejaVu Sans" font-size="2.0" text-anchor="middle" font-weight="bold" fill="#fff">9</text>
<text x="208.60" y="79.80" font-family="DejaVu Sans, sans-serif" font-size="1.9" text-anchor="start" fill="#111" font-weight="normal">pg-3 encoder: LEFT pin of the 2 (push)  -&gt;  Seed3</text>
<text x="208.60" y="82.35" font-family="DejaVu Sans, sans-serif" font-size="1.9" text-anchor="start" fill="#111" font-weight="normal">socket place 22 (bottom row)</text>
<circle cx="205.70" cy="85.15" r="1.7" fill="#1f9d3a"/><text x="205.70" y="85.90" font-family="DejaVu Sans" font-size="2.0" text-anchor="middle" font-weight="bold" fill="#fff">10</text>
<text x="208.60" y="85.90" font-family="DejaVu Sans, sans-serif" font-size="1.9" text-anchor="start" fill="#111" font-weight="normal">pg-4 encoder: RIGHT pin of the row of 3 (A)  -&gt;  Seed3</text>
<text x="208.60" y="88.45" font-family="DejaVu Sans, sans-serif" font-size="1.9" text-anchor="start" fill="#111" font-weight="normal">socket place 26 (bottom row)</text>
<circle cx="205.70" cy="91.25" r="1.7" fill="#1f9d3a"/><text x="205.70" y="92.00" font-family="DejaVu Sans" font-size="2.0" text-anchor="middle" font-weight="bold" fill="#fff">11</text>
<text x="208.60" y="92.00" font-family="DejaVu Sans, sans-serif" font-size="1.9" text-anchor="start" fill="#111" font-weight="normal">pg-4 encoder: LEFT pin of the row of 3 (B)  -&gt;  Seed3</text>
<text x="208.60" y="94.55" font-family="DejaVu Sans, sans-serif" font-size="1.9" text-anchor="start" fill="#111" font-weight="normal">socket place 27 (bottom row)</text>
<circle cx="205.70" cy="97.35" r="1.7" fill="#1f9d3a"/><text x="205.70" y="98.10" font-family="DejaVu Sans" font-size="2.0" text-anchor="middle" font-weight="bold" fill="#fff">12</text>
<text x="208.60" y="98.10" font-family="DejaVu Sans, sans-serif" font-size="1.9" text-anchor="start" fill="#111" font-weight="normal">pg-4 encoder: LEFT pin of the 2 (push)  -&gt;  Seed3</text>
<text x="208.60" y="100.65" font-family="DejaVu Sans, sans-serif" font-size="1.9" text-anchor="start" fill="#111" font-weight="normal">socket place 28 (bottom row)</text></svg>
