<svg xmlns="http://www.w3.org/2000/svg" width="297.0mm" height="210.0mm" viewBox="0 0 297.0 210.0"><defs>
<filter id="sh" x="-20%" y="-20%" width="140%" height="140%"><feGaussianBlur in="SourceAlpha" stdDeviation="0.9"/>
<feOffset dx="0.8" dy="1.1"/><feComponentTransfer><feFuncA type="linear" slope="0.35"/></feComponentTransfer>
<feMerge><feMergeNode/><feMergeNode in="SourceGraphic"/></feMerge></filter>
<linearGradient id="metal" x1="0" y1="0" x2="1" y2="1"><stop offset="0" stop-color="#eef0f2"/><stop offset="0.45" stop-color="#b8bcc2"/><stop offset="1" stop-color="#8a8f96"/></linearGradient>
<linearGradient id="dark" x1="0" y1="0" x2="0" y2="1"><stop offset="0" stop-color="#3a3d42"/><stop offset="1" stop-color="#1c1e21"/></linearGradient>
<linearGradient id="ivory" x1="0" y1="0" x2="1" y2="1"><stop offset="0" stop-color="#fbf8ee"/><stop offset="1" stop-color="#ddd6c2"/></linearGradient>
<linearGradient id="pcbg" x1="0" y1="0" x2="0" y2="1"><stop offset="0" stop-color="#2f9a5e"/><stop offset="1" stop-color="#1f6e42"/></linearGradient>
<linearGradient id="pcbb" x1="0" y1="0" x2="0" y2="1"><stop offset="0" stop-color="#2d63c8"/><stop offset="1" stop-color="#1a3f8a"/></linearGradient>
<linearGradient id="gold" x1="0" y1="0" x2="1" y2="0"><stop offset="0" stop-color="#f3d27a"/><stop offset="1" stop-color="#b98a1c"/></linearGradient>
<linearGradient id="potc" x1="0" y1="0" x2="1" y2="1"><stop offset="0" stop-color="#c9d3df"/><stop offset="1" stop-color="#7f8ea2"/></linearGradient>
<radialGradient id="chrome" cx="0.35" cy="0.35" r="0.7"><stop offset="0" stop-color="#ffffff"/><stop offset="0.5" stop-color="#c3c7cc"/><stop offset="1" stop-color="#7d838b"/></radialGradient>
</defs><rect width="297.0" height="210.0" fill="#f6f4ef"/><text x="8.00" y="10.00" font-family="DejaVu Sans, sans-serif" font-size="4.6" text-anchor="start" fill="#111" font-weight="bold">PG-1 wiring  2/10:  Carrier board -&gt; Seed3: the 6 signal jumpers</text>
<text x="8.00" y="16.00" font-family="DejaVu Sans, sans-serif" font-size="2.3" text-anchor="start" fill="#333" font-weight="normal">Plug these onto the board&#x27;s header BEFORE the board goes in the box (the names are printed on the board). Their other ends go into the Seed3 </text>
<text x="8.00" y="19.10" font-family="DejaVu Sans, sans-serif" font-size="2.3" text-anchor="start" fill="#333" font-weight="normal">socket places shown. </text>
<rect x="46.00" y="48.00" width="63.88" height="10.00" rx="1.0" fill="url(#pcbg)" stroke="#14502f" stroke-width="0.3" filter="url(#sh)"/>
<text x="77.94" y="51.00" font-family="DejaVu Sans, sans-serif" font-size="1.9" text-anchor="middle" fill="#fff" font-weight="bold">carrier board: seed3 + 9v</text>
<rect x="48.50" y="57.80" width="58.88" height="5.40" rx="0.4" fill="#1a1a1a" stroke="#000" stroke-width="0.3"/>
<rect x="52.24" y="61.20" width="1.1" height="7.80" fill="url(#gold)" stroke="#7a5a10" stroke-width="0.15"/>
<text x="52.79" y="55.40" font-family="DejaVu Sans, sans-serif" font-size="1.65" text-anchor="middle" fill="#fff" font-weight="bold">dc +</text>
<rect x="57.83" y="61.20" width="1.1" height="7.80" fill="url(#gold)" stroke="#7a5a10" stroke-width="0.15"/>
<text x="58.38" y="55.40" font-family="DejaVu Sans, sans-serif" font-size="1.65" text-anchor="middle" fill="#fff" font-weight="bold">dc -</text>
<rect x="63.42" y="61.20" width="1.1" height="7.80" fill="url(#gold)" stroke="#7a5a10" stroke-width="0.15"/>
<text x="63.97" y="55.40" font-family="DejaVu Sans, sans-serif" font-size="1.65" text-anchor="middle" fill="#fff" font-weight="bold">vin</text>
<rect x="69.01" y="61.20" width="1.1" height="7.80" fill="url(#gold)" stroke="#7a5a10" stroke-width="0.15"/>
<text x="69.56" y="55.40" font-family="DejaVu Sans, sans-serif" font-size="1.65" text-anchor="middle" fill="#fff" font-weight="bold">gnd</text>
<rect x="74.60" y="61.20" width="1.1" height="7.80" fill="url(#gold)" stroke="#7a5a10" stroke-width="0.15"/>
<text x="75.15" y="55.40" font-family="DejaVu Sans, sans-serif" font-size="1.65" text-anchor="middle" fill="#fff" font-weight="bold">scl</text>
<rect x="80.18" y="61.20" width="1.1" height="7.80" fill="url(#gold)" stroke="#7a5a10" stroke-width="0.15"/>
<text x="80.73" y="55.40" font-family="DejaVu Sans, sans-serif" font-size="1.65" text-anchor="middle" fill="#fff" font-weight="bold">sda</text>
<rect x="85.77" y="61.20" width="1.1" height="7.80" fill="url(#gold)" stroke="#7a5a10" stroke-width="0.15"/>
<text x="86.32" y="55.40" font-family="DejaVu Sans, sans-serif" font-size="1.65" text-anchor="middle" fill="#fff" font-weight="bold">sck</text>
<rect x="91.36" y="61.20" width="1.1" height="7.80" fill="url(#gold)" stroke="#7a5a10" stroke-width="0.15"/>
<text x="91.91" y="55.40" font-family="DejaVu Sans, sans-serif" font-size="1.65" text-anchor="middle" fill="#fff" font-weight="bold">fs</text>
<rect x="96.95" y="61.20" width="1.1" height="7.80" fill="url(#gold)" stroke="#7a5a10" stroke-width="0.15"/>
<text x="97.50" y="55.40" font-family="DejaVu Sans, sans-serif" font-size="1.65" text-anchor="middle" fill="#fff" font-weight="bold">tx</text>
<rect x="102.54" y="61.20" width="1.1" height="7.80" fill="url(#gold)" stroke="#7a5a10" stroke-width="0.15"/>
<text x="103.09" y="55.40" font-family="DejaVu Sans, sans-serif" font-size="1.65" text-anchor="middle" fill="#fff" font-weight="bold">rx</text>
<rect x="56.00" y="147.00" width="99.44" height="20.14" rx="1.6" fill="#2a2a2a" stroke="#000" stroke-width="0.35" filter="url(#sh)"/>
<text x="105.72" y="164.34" font-family="DejaVu Sans, sans-serif" font-size="1.8" text-anchor="middle" fill="#eee" font-weight="bold">Seed3 socket: the jumper-end block in the right wall, from INSIDE (USB-C end on your left)</text>
<rect x="60.35" y="151.35" width="3.87" height="3.87" rx="0.3" fill="#111" stroke="#555" stroke-width="0.25"/>
<text x="62.29" y="153.89" font-family="DejaVu Sans, sans-serif" font-size="1.5" text-anchor="middle" fill="#8a8a8a" font-weight="normal">1</text>
<rect x="60.35" y="155.92" width="3.87" height="3.87" rx="0.3" fill="#111" stroke="#555" stroke-width="0.25"/>
<text x="62.29" y="158.46" font-family="DejaVu Sans, sans-serif" font-size="1.5" text-anchor="middle" fill="#8a8a8a" font-weight="normal">40</text>
<rect x="64.92" y="151.35" width="3.87" height="3.87" rx="0.3" fill="#111" stroke="#555" stroke-width="0.25"/>
<text x="66.86" y="153.89" font-family="DejaVu Sans, sans-serif" font-size="1.5" text-anchor="middle" fill="#8a8a8a" font-weight="normal">2</text>
<rect x="64.92" y="155.92" width="3.87" height="3.87" rx="0.3" fill="#111" stroke="#555" stroke-width="0.25"/>
<text x="66.86" y="158.46" font-family="DejaVu Sans, sans-serif" font-size="1.5" text-anchor="middle" fill="#8a8a8a" font-weight="normal">39</text>
<rect x="69.49" y="151.35" width="3.87" height="3.87" rx="0.3" fill="#111" stroke="#555" stroke-width="0.25"/>
<text x="71.43" y="153.89" font-family="DejaVu Sans, sans-serif" font-size="1.5" text-anchor="middle" fill="#8a8a8a" font-weight="normal">3</text>
<rect x="69.49" y="155.92" width="3.87" height="3.87" rx="0.3" fill="#111" stroke="#555" stroke-width="0.25"/>
<text x="71.43" y="158.46" font-family="DejaVu Sans, sans-serif" font-size="1.5" text-anchor="middle" fill="#8a8a8a" font-weight="normal">38</text>
<rect x="74.07" y="151.35" width="3.87" height="3.87" rx="0.3" fill="#111" stroke="#555" stroke-width="0.25"/>
<text x="76.00" y="153.89" font-family="DejaVu Sans, sans-serif" font-size="1.5" text-anchor="middle" fill="#8a8a8a" font-weight="normal">4</text>
<rect x="74.07" y="155.92" width="3.87" height="3.87" rx="0.3" fill="#111" stroke="#555" stroke-width="0.25"/>
<text x="76.00" y="158.46" font-family="DejaVu Sans, sans-serif" font-size="1.5" text-anchor="middle" fill="#8a8a8a" font-weight="normal">37</text>
<rect x="78.64" y="151.35" width="3.87" height="3.87" rx="0.3" fill="#111" stroke="#555" stroke-width="0.25"/>
<text x="80.57" y="153.89" font-family="DejaVu Sans, sans-serif" font-size="1.5" text-anchor="middle" fill="#8a8a8a" font-weight="normal">5</text>
<rect x="78.64" y="155.92" width="3.87" height="3.87" rx="0.3" fill="#111" stroke="#555" stroke-width="0.25"/>
<text x="80.57" y="158.46" font-family="DejaVu Sans, sans-serif" font-size="1.5" text-anchor="middle" fill="#8a8a8a" font-weight="normal">36</text>
<rect x="83.21" y="151.35" width="3.87" height="3.87" rx="0.3" fill="#111" stroke="#555" stroke-width="0.25"/>
<text x="85.15" y="153.89" font-family="DejaVu Sans, sans-serif" font-size="1.5" text-anchor="middle" fill="#8a8a8a" font-weight="normal">6</text>
<rect x="83.21" y="155.92" width="3.87" height="3.87" rx="0.3" fill="#000" stroke="#d4a017" stroke-width="0.45"/>
<rect x="87.78" y="151.35" width="3.87" height="3.87" rx="0.3" fill="#111" stroke="#555" stroke-width="0.25"/>
<text x="89.72" y="153.89" font-family="DejaVu Sans, sans-serif" font-size="1.5" text-anchor="middle" fill="#8a8a8a" font-weight="normal">7</text>
<rect x="87.78" y="155.92" width="3.87" height="3.87" rx="0.3" fill="#000" stroke="#d4a017" stroke-width="0.45"/>
<rect x="92.35" y="151.35" width="3.87" height="3.87" rx="0.3" fill="#111" stroke="#555" stroke-width="0.25"/>
<text x="94.29" y="153.89" font-family="DejaVu Sans, sans-serif" font-size="1.5" text-anchor="middle" fill="#8a8a8a" font-weight="normal">8</text>
<rect x="92.35" y="155.92" width="3.87" height="3.87" rx="0.3" fill="#000" stroke="#d4a017" stroke-width="0.45"/>
<rect x="96.93" y="151.35" width="3.87" height="3.87" rx="0.3" fill="#111" stroke="#555" stroke-width="0.25"/>
<text x="98.86" y="153.89" font-family="DejaVu Sans, sans-serif" font-size="1.5" text-anchor="middle" fill="#8a8a8a" font-weight="normal">9</text>
<rect x="96.93" y="155.92" width="3.87" height="3.87" rx="0.3" fill="#000" stroke="#d4a017" stroke-width="0.45"/>
<rect x="101.50" y="151.35" width="3.87" height="3.87" rx="0.3" fill="#111" stroke="#555" stroke-width="0.25"/>
<text x="103.43" y="153.89" font-family="DejaVu Sans, sans-serif" font-size="1.5" text-anchor="middle" fill="#8a8a8a" font-weight="normal">10</text>
<rect x="101.50" y="155.92" width="3.87" height="3.87" rx="0.3" fill="#111" stroke="#555" stroke-width="0.25"/>
<text x="103.43" y="158.46" font-family="DejaVu Sans, sans-serif" font-size="1.5" text-anchor="middle" fill="#8a8a8a" font-weight="normal">31</text>
<rect x="106.07" y="151.35" width="3.87" height="3.87" rx="0.3" fill="#111" stroke="#555" stroke-width="0.25"/>
<text x="108.01" y="153.89" font-family="DejaVu Sans, sans-serif" font-size="1.5" text-anchor="middle" fill="#8a8a8a" font-weight="normal">11</text>
<rect x="106.07" y="155.92" width="3.87" height="3.87" rx="0.3" fill="#111" stroke="#555" stroke-width="0.25"/>
<text x="108.01" y="158.46" font-family="DejaVu Sans, sans-serif" font-size="1.5" text-anchor="middle" fill="#8a8a8a" font-weight="normal">30</text>
<rect x="110.64" y="151.35" width="3.87" height="3.87" rx="0.3" fill="#000" stroke="#d4a017" stroke-width="0.45"/>
<rect x="110.64" y="155.92" width="3.87" height="3.87" rx="0.3" fill="#111" stroke="#555" stroke-width="0.25"/>
<text x="112.58" y="158.46" font-family="DejaVu Sans, sans-serif" font-size="1.5" text-anchor="middle" fill="#8a8a8a" font-weight="normal">29</text>
<rect x="115.21" y="151.35" width="3.87" height="3.87" rx="0.3" fill="#000" stroke="#d4a017" stroke-width="0.45"/>
<rect x="115.21" y="155.92" width="3.87" height="3.87" rx="0.3" fill="#111" stroke="#555" stroke-width="0.25"/>
<text x="117.15" y="158.46" font-family="DejaVu Sans, sans-serif" font-size="1.5" text-anchor="middle" fill="#8a8a8a" font-weight="normal">28</text>
<rect x="119.79" y="151.35" width="3.87" height="3.87" rx="0.3" fill="#111" stroke="#555" stroke-width="0.25"/>
<text x="121.72" y="153.89" font-family="DejaVu Sans, sans-serif" font-size="1.5" text-anchor="middle" fill="#8a8a8a" font-weight="normal">14</text>
<rect x="119.79" y="155.92" width="3.87" height="3.87" rx="0.3" fill="#111" stroke="#555" stroke-width="0.25"/>
<text x="121.72" y="158.46" font-family="DejaVu Sans, sans-serif" font-size="1.5" text-anchor="middle" fill="#8a8a8a" font-weight="normal">27</text>
<rect x="124.36" y="151.35" width="3.87" height="3.87" rx="0.3" fill="#111" stroke="#555" stroke-width="0.25"/>
<text x="126.29" y="153.89" font-family="DejaVu Sans, sans-serif" font-size="1.5" text-anchor="middle" fill="#8a8a8a" font-weight="normal">15</text>
<rect x="124.36" y="155.92" width="3.87" height="3.87" rx="0.3" fill="#111" stroke="#555" stroke-width="0.25"/>
<text x="126.29" y="158.46" font-family="DejaVu Sans, sans-serif" font-size="1.5" text-anchor="middle" fill="#8a8a8a" font-weight="normal">26</text>
<rect x="128.93" y="151.35" width="3.87" height="3.87" rx="0.3" fill="#111" stroke="#555" stroke-width="0.25"/>
<text x="130.87" y="153.89" font-family="DejaVu Sans, sans-serif" font-size="1.5" text-anchor="middle" fill="#8a8a8a" font-weight="normal">16</text>
<rect x="128.93" y="155.92" width="3.87" height="3.87" rx="0.3" fill="#111" stroke="#555" stroke-width="0.25"/>
<text x="130.87" y="158.46" font-family="DejaVu Sans, sans-serif" font-size="1.5" text-anchor="middle" fill="#8a8a8a" font-weight="normal">25</text>
<rect x="133.50" y="151.35" width="3.87" height="3.87" rx="0.3" fill="#111" stroke="#555" stroke-width="0.25"/>
<text x="135.44" y="153.89" font-family="DejaVu Sans, sans-serif" font-size="1.5" text-anchor="middle" fill="#8a8a8a" font-weight="normal">17</text>
<rect x="133.50" y="155.92" width="3.87" height="3.87" rx="0.3" fill="#111" stroke="#555" stroke-width="0.25"/>
<text x="135.44" y="158.46" font-family="DejaVu Sans, sans-serif" font-size="1.5" text-anchor="middle" fill="#8a8a8a" font-weight="normal">24</text>
<rect x="138.07" y="151.35" width="3.87" height="3.87" rx="0.3" fill="#111" stroke="#555" stroke-width="0.25"/>
<text x="140.01" y="153.89" font-family="DejaVu Sans, sans-serif" font-size="1.5" text-anchor="middle" fill="#8a8a8a" font-weight="normal">18</text>
<rect x="138.07" y="155.92" width="3.87" height="3.87" rx="0.3" fill="#111" stroke="#555" stroke-width="0.25"/>
<text x="140.01" y="158.46" font-family="DejaVu Sans, sans-serif" font-size="1.5" text-anchor="middle" fill="#8a8a8a" font-weight="normal">23</text>
<rect x="142.65" y="151.35" width="3.87" height="3.87" rx="0.3" fill="#111" stroke="#555" stroke-width="0.25"/>
<text x="144.58" y="153.89" font-family="DejaVu Sans, sans-serif" font-size="1.5" text-anchor="middle" fill="#8a8a8a" font-weight="normal">19</text>
<rect x="142.65" y="155.92" width="3.87" height="3.87" rx="0.3" fill="#111" stroke="#555" stroke-width="0.25"/>
<text x="144.58" y="158.46" font-family="DejaVu Sans, sans-serif" font-size="1.5" text-anchor="middle" fill="#8a8a8a" font-weight="normal">22</text>
<rect x="147.22" y="151.35" width="3.87" height="3.87" rx="0.3" fill="#111" stroke="#555" stroke-width="0.25"/>
<text x="149.15" y="153.89" font-family="DejaVu Sans, sans-serif" font-size="1.5" text-anchor="middle" fill="#8a8a8a" font-weight="normal">20</text>
<rect x="147.22" y="155.92" width="3.87" height="3.87" rx="0.3" fill="#111" stroke="#555" stroke-width="0.25"/>
<text x="149.15" y="158.46" font-family="DejaVu Sans, sans-serif" font-size="1.5" text-anchor="middle" fill="#8a8a8a" font-weight="normal">21</text>
<text x="54.50" y="156.07" font-family="DejaVu Sans, sans-serif" font-size="1.8" text-anchor="end" fill="#444" font-weight="normal" stroke="#fff" stroke-width="0.40" paint-order="stroke">USB-C</text>
<path d="M75.15,69.00 L75.15,93.20 Q75.15,94.80 76.75,94.80 L110.98,94.80 Q112.58,94.80 112.58,96.40 L112.58,153.29" fill="none" stroke="#000" stroke-opacity="0.55" stroke-width="1.8" stroke-linecap="round" stroke-linejoin="round"/><path d="M75.15,69.00 L75.15,93.20 Q75.15,94.80 76.75,94.80 L110.98,94.80 Q112.58,94.80 112.58,96.40 L112.58,153.29" fill="none" stroke="#1f5fd1" stroke-width="1.25" stroke-linecap="round" stroke-linejoin="round"/><path d="M75.15,69.00 L75.15,93.20 Q75.15,94.80 76.75,94.80 L110.98,94.80 Q112.58,94.80 112.58,96.40 L112.58,153.29" fill="none" stroke="#fff" stroke-opacity="0.35" stroke-width="0.35" stroke-linecap="round" stroke-linejoin="round" transform="translate(-0.18,-0.18)"/>
<path d="M80.73,69.00 L80.73,100.00 Q80.73,101.60 82.33,101.60 L115.55,101.60 Q117.15,101.60 117.15,103.20 L117.15,153.29" fill="none" stroke="#000" stroke-opacity="0.55" stroke-width="1.8" stroke-linecap="round" stroke-linejoin="round"/><path d="M80.73,69.00 L80.73,100.00 Q80.73,101.60 82.33,101.60 L115.55,101.60 Q117.15,101.60 117.15,103.20 L117.15,153.29" fill="none" stroke="#1f5fd1" stroke-width="1.25" stroke-linecap="round" stroke-linejoin="round"/><path d="M80.73,69.00 L80.73,100.00 Q80.73,101.60 82.33,101.60 L115.55,101.60 Q117.15,101.60 117.15,103.20 L117.15,153.29" fill="none" stroke="#fff" stroke-opacity="0.35" stroke-width="0.35" stroke-linecap="round" stroke-linejoin="round" transform="translate(-0.18,-0.18)"/>
<path d="M86.32,69.00 L86.32,87.41 Q86.32,88.00 85.73,88.00 L85.73,88.00 Q85.15,88.00 85.15,88.59 L85.15,157.86" fill="none" stroke="#000" stroke-opacity="0.55" stroke-width="1.8" stroke-linecap="round" stroke-linejoin="round"/><path d="M86.32,69.00 L86.32,87.41 Q86.32,88.00 85.73,88.00 L85.73,88.00 Q85.15,88.00 85.15,88.59 L85.15,157.86" fill="none" stroke="#7a3db8" stroke-width="1.25" stroke-linecap="round" stroke-linejoin="round"/><path d="M86.32,69.00 L86.32,87.41 Q86.32,88.00 85.73,88.00 L85.73,88.00 Q85.15,88.00 85.15,88.59 L85.15,157.86" fill="none" stroke="#fff" stroke-opacity="0.35" stroke-width="0.35" stroke-linecap="round" stroke-linejoin="round" transform="translate(-0.18,-0.18)"/>
<path d="M91.91,69.00 L91.91,90.30 Q91.91,91.40 90.81,91.40 L90.81,91.40 Q89.72,91.40 89.72,92.50 L89.72,157.86" fill="none" stroke="#000" stroke-opacity="0.55" stroke-width="1.8" stroke-linecap="round" stroke-linejoin="round"/><path d="M91.91,69.00 L91.91,90.30 Q91.91,91.40 90.81,91.40 L90.81,91.40 Q89.72,91.40 89.72,92.50 L89.72,157.86" fill="none" stroke="#7a3db8" stroke-width="1.25" stroke-linecap="round" stroke-linejoin="round"/><path d="M91.91,69.00 L91.91,90.30 Q91.91,91.40 90.81,91.40 L90.81,91.40 Q89.72,91.40 89.72,92.50 L89.72,157.86" fill="none" stroke="#fff" stroke-opacity="0.35" stroke-width="0.35" stroke-linecap="round" stroke-linejoin="round" transform="translate(-0.18,-0.18)"/>
<path d="M97.50,69.00 L97.50,96.60 Q97.50,98.20 95.90,98.20 L95.89,98.20 Q94.29,98.20 94.29,99.80 L94.29,157.86" fill="none" stroke="#000" stroke-opacity="0.55" stroke-width="1.8" stroke-linecap="round" stroke-linejoin="round"/><path d="M97.50,69.00 L97.50,96.60 Q97.50,98.20 95.90,98.20 L95.89,98.20 Q94.29,98.20 94.29,99.80 L94.29,157.86" fill="none" stroke="#7a3db8" stroke-width="1.25" stroke-linecap="round" stroke-linejoin="round"/><path d="M97.50,69.00 L97.50,96.60 Q97.50,98.20 95.90,98.20 L95.89,98.20 Q94.29,98.20 94.29,99.80 L94.29,157.86" fill="none" stroke="#fff" stroke-opacity="0.35" stroke-width="0.35" stroke-linecap="round" stroke-linejoin="round" transform="translate(-0.18,-0.18)"/>
<path d="M103.09,69.00 L103.09,103.40 Q103.09,105.00 101.49,105.00 L100.46,105.00 Q98.86,105.00 98.86,106.60 L98.86,157.86" fill="none" stroke="#000" stroke-opacity="0.55" stroke-width="1.8" stroke-linecap="round" stroke-linejoin="round"/><path d="M103.09,69.00 L103.09,103.40 Q103.09,105.00 101.49,105.00 L100.46,105.00 Q98.86,105.00 98.86,106.60 L98.86,157.86" fill="none" stroke="#7a3db8" stroke-width="1.25" stroke-linecap="round" stroke-linejoin="round"/><path d="M103.09,69.00 L103.09,103.40 Q103.09,105.00 101.49,105.00 L100.46,105.00 Q98.86,105.00 98.86,106.60 L98.86,157.86" fill="none" stroke="#fff" stroke-opacity="0.35" stroke-width="0.35" stroke-linecap="round" stroke-linejoin="round" transform="translate(-0.18,-0.18)"/>
<rect x="73.85" y="69.00" width="2.6" height="6.5" rx="0.4" fill="#141414" stroke="#1f5fd1" stroke-width="0.35"/>
<rect x="110.38" y="151.59" width="4.4" height="3.4" rx="0.7" fill="#fff" stroke="#1f5fd1" stroke-width="0.5"/><text x="112.58" y="154.09" font-family="DejaVu Sans" font-size="2.2" text-anchor="middle" font-weight="bold" fill="#000">12</text>
<rect x="79.43" y="69.00" width="2.6" height="6.5" rx="0.4" fill="#141414" stroke="#1f5fd1" stroke-width="0.35"/>
<rect x="114.95" y="151.59" width="4.4" height="3.4" rx="0.7" fill="#fff" stroke="#1f5fd1" stroke-width="0.5"/><text x="117.15" y="154.09" font-family="DejaVu Sans" font-size="2.2" text-anchor="middle" font-weight="bold" fill="#000">13</text>
<rect x="85.02" y="69.00" width="2.6" height="6.5" rx="0.4" fill="#141414" stroke="#7a3db8" stroke-width="0.35"/>
<rect x="82.95" y="156.16" width="4.4" height="3.4" rx="0.7" fill="#fff" stroke="#7a3db8" stroke-width="0.5"/><text x="85.15" y="158.66" font-family="DejaVu Sans" font-size="2.2" text-anchor="middle" font-weight="bold" fill="#000">35</text>
<rect x="90.61" y="69.00" width="2.6" height="6.5" rx="0.4" fill="#141414" stroke="#7a3db8" stroke-width="0.35"/>
<rect x="87.52" y="156.16" width="4.4" height="3.4" rx="0.7" fill="#fff" stroke="#7a3db8" stroke-width="0.5"/><text x="89.72" y="158.66" font-family="DejaVu Sans" font-size="2.2" text-anchor="middle" font-weight="bold" fill="#000">34</text>
<rect x="96.20" y="69.00" width="2.6" height="6.5" rx="0.4" fill="#141414" stroke="#7a3db8" stroke-width="0.35"/>
<rect x="92.09" y="156.16" width="4.4" height="3.4" rx="0.7" fill="#fff" stroke="#7a3db8" stroke-width="0.5"/><text x="94.29" y="158.66" font-family="DejaVu Sans" font-size="2.2" text-anchor="middle" font-weight="bold" fill="#000">33</text>
<rect x="101.79" y="69.00" width="2.6" height="6.5" rx="0.4" fill="#141414" stroke="#7a3db8" stroke-width="0.35"/>
<rect x="96.66" y="156.16" width="4.4" height="3.4" rx="0.7" fill="#fff" stroke="#7a3db8" stroke-width="0.5"/><text x="98.86" y="158.66" font-family="DejaVu Sans" font-size="2.2" text-anchor="middle" font-weight="bold" fill="#000">32</text>
<circle cx="93.86" cy="94.80" r="2.2" fill="#fff" stroke="#1f5fd1" stroke-width="0.55"/><text x="93.86" y="95.65" font-family="DejaVu Sans" font-size="2.3" text-anchor="middle" font-weight="bold" fill="#000">1</text>
<circle cx="98.94" cy="101.60" r="2.2" fill="#fff" stroke="#1f5fd1" stroke-width="0.55"/><text x="98.94" y="102.45" font-family="DejaVu Sans" font-size="2.3" text-anchor="middle" font-weight="bold" fill="#000">2</text>
<circle cx="85.73" cy="88.00" r="2.2" fill="#fff" stroke="#7a3db8" stroke-width="0.55"/><text x="85.73" y="88.85" font-family="DejaVu Sans" font-size="2.3" text-anchor="middle" font-weight="bold" fill="#000">3</text>
<circle cx="90.81" cy="91.40" r="2.2" fill="#fff" stroke="#7a3db8" stroke-width="0.55"/><text x="90.81" y="92.25" font-family="DejaVu Sans" font-size="2.3" text-anchor="middle" font-weight="bold" fill="#000">4</text>
<circle cx="95.89" cy="98.20" r="2.2" fill="#fff" stroke="#7a3db8" stroke-width="0.55"/><text x="95.89" y="99.05" font-family="DejaVu Sans" font-size="2.3" text-anchor="middle" font-weight="bold" fill="#000">5</text>
<circle cx="100.97" cy="105.00" r="2.2" fill="#fff" stroke="#7a3db8" stroke-width="0.55"/><text x="100.97" y="105.85" font-family="DejaVu Sans" font-size="2.3" text-anchor="middle" font-weight="bold" fill="#000">6</text>
<rect x="201.00" y="22" width="91.00" height="182.00" rx="2" fill="#fff" stroke="#ddd" stroke-width="0.3"/>
<text x="204.00" y="27.50" font-family="DejaVu Sans, sans-serif" font-size="2.8" text-anchor="start" fill="#111" font-weight="bold">Steps (the number is on the wire)</text>
<circle cx="205.70" cy="30.25" r="1.7" fill="#1f5fd1"/><text x="205.70" y="31.00" font-family="DejaVu Sans" font-size="2.0" text-anchor="middle" font-weight="bold" fill="#fff">1</text>
<text x="208.60" y="31.00" font-family="DejaVu Sans, sans-serif" font-size="1.9" text-anchor="start" fill="#111" font-weight="normal">carrier &#x27;seed3 + 9v&#x27; header: &#x27;scl&#x27; (5th from the left) </text>
<text x="208.60" y="33.55" font-family="DejaVu Sans, sans-serif" font-size="1.9" text-anchor="start" fill="#111" font-weight="normal">-&gt;  Seed3 socket place 12 (top row)</text>
<text x="208.60" y="36.10" font-family="DejaVu Sans, sans-serif" font-size="1.65" text-anchor="start" fill="#666" font-weight="normal">jumper: I2C clock</text>
<circle cx="205.70" cy="38.90" r="1.7" fill="#1f5fd1"/><text x="205.70" y="39.65" font-family="DejaVu Sans" font-size="2.0" text-anchor="middle" font-weight="bold" fill="#fff">2</text>
<text x="208.60" y="39.65" font-family="DejaVu Sans, sans-serif" font-size="1.9" text-anchor="start" fill="#111" font-weight="normal">carrier &#x27;seed3 + 9v&#x27; header: &#x27;sda&#x27; (6th from the left) </text>
<text x="208.60" y="42.20" font-family="DejaVu Sans, sans-serif" font-size="1.9" text-anchor="start" fill="#111" font-weight="normal">-&gt;  Seed3 socket place 13 (top row)</text>
<text x="208.60" y="44.75" font-family="DejaVu Sans, sans-serif" font-size="1.65" text-anchor="start" fill="#666" font-weight="normal">jumper: I2C data</text>
<circle cx="205.70" cy="47.55" r="1.7" fill="#7a3db8"/><text x="205.70" y="48.30" font-family="DejaVu Sans" font-size="2.0" text-anchor="middle" font-weight="bold" fill="#fff">3</text>
<text x="208.60" y="48.30" font-family="DejaVu Sans, sans-serif" font-size="1.9" text-anchor="start" fill="#111" font-weight="normal">carrier &#x27;seed3 + 9v&#x27; header: &#x27;sck&#x27; (7th from the left) </text>
<text x="208.60" y="50.85" font-family="DejaVu Sans, sans-serif" font-size="1.9" text-anchor="start" fill="#111" font-weight="normal">-&gt;  Seed3 socket place 35 (bottom row)</text>
<text x="208.60" y="53.40" font-family="DejaVu Sans, sans-serif" font-size="1.65" text-anchor="start" fill="#666" font-weight="normal">jumper: audio bit clock</text>
<circle cx="205.70" cy="56.20" r="1.7" fill="#7a3db8"/><text x="205.70" y="56.95" font-family="DejaVu Sans" font-size="2.0" text-anchor="middle" font-weight="bold" fill="#fff">4</text>
<text x="208.60" y="56.95" font-family="DejaVu Sans, sans-serif" font-size="1.9" text-anchor="start" fill="#111" font-weight="normal">carrier &#x27;seed3 + 9v&#x27; header: &#x27;fs&#x27; (8th from the left) </text>
<text x="208.60" y="59.50" font-family="DejaVu Sans, sans-serif" font-size="1.9" text-anchor="start" fill="#111" font-weight="normal">-&gt;  Seed3 socket place 34 (bottom row)</text>
<text x="208.60" y="62.05" font-family="DejaVu Sans, sans-serif" font-size="1.65" text-anchor="start" fill="#666" font-weight="normal">jumper: audio frame clock</text>
<circle cx="205.70" cy="64.85" r="1.7" fill="#7a3db8"/><text x="205.70" y="65.60" font-family="DejaVu Sans" font-size="2.0" text-anchor="middle" font-weight="bold" fill="#fff">5</text>
<text x="208.60" y="65.60" font-family="DejaVu Sans, sans-serif" font-size="1.9" text-anchor="start" fill="#111" font-weight="normal">carrier &#x27;seed3 + 9v&#x27; header: &#x27;tx&#x27; (9th from the left) </text>
<text x="208.60" y="68.15" font-family="DejaVu Sans, sans-serif" font-size="1.9" text-anchor="start" fill="#111" font-weight="normal">-&gt;  Seed3 socket place 33 (bottom row)</text>
<text x="208.60" y="70.70" font-family="DejaVu Sans, sans-serif" font-size="1.65" text-anchor="start" fill="#666" font-weight="normal">jumper: audio Seed3 -&gt; board</text>
<circle cx="205.70" cy="73.50" r="1.7" fill="#7a3db8"/><text x="205.70" y="74.25" font-family="DejaVu Sans" font-size="2.0" text-anchor="middle" font-weight="bold" fill="#fff">6</text>
<text x="208.60" y="74.25" font-family="DejaVu Sans, sans-serif" font-size="1.9" text-anchor="start" fill="#111" font-weight="normal">carrier &#x27;seed3 + 9v&#x27; header: &#x27;rx&#x27; (last on the right) </text>
<text x="208.60" y="76.80" font-family="DejaVu Sans, sans-serif" font-size="1.9" text-anchor="start" fill="#111" font-weight="normal">-&gt;  Seed3 socket place 32 (bottom row)</text>
<text x="208.60" y="79.35" font-family="DejaVu Sans, sans-serif" font-size="1.65" text-anchor="start" fill="#666" font-weight="normal">jumper: audio board -&gt; Seed3</text></svg>
